<svg width="32" height="32" viewBox="0 0 32 32" fill="none" xmlns="http://www.w3.org/2000/svg">
<path fill-rule="evenodd" clip-rule="evenodd" d="M8.41235 9.2128C10.7278 9.2128 12.0284 7.90994 12.0284 5.5968C12.0284 3.28366 10.7255 1.97852 8.41235 1.97852C6.09921 1.97852 4.79406 3.28137 4.79406 5.5968C4.79406 7.91223 6.09692 9.2128 8.41235 9.2128ZM25.1438 11.0025C25.1528 11.2276 25.206 11.4488 25.3005 11.6533C25.395 11.8579 25.5288 12.0418 25.6944 12.1946C25.8599 12.3474 26.054 12.4661 26.2654 12.544C26.4768 12.6218 26.7015 12.6572 26.9266 12.6482C27.1518 12.6392 27.3729 12.586 27.5774 12.4915C27.782 12.397 27.9659 12.2632 28.1187 12.0976C28.2716 11.9321 28.3903 11.7381 28.4681 11.5266C28.5459 11.3152 28.5814 11.0905 28.5724 10.8654C28.5422 10.1252 28.5049 9.38537 28.4604 8.64594C28.3749 7.1633 27.7477 5.76371 26.698 4.71316C25.6483 3.6626 24.2492 3.0343 22.7666 2.94766C21.6253 2.88061 20.4923 2.83109 19.3678 2.79909C18.9131 2.78605 18.4719 2.95417 18.1412 3.26644C17.8105 3.57872 17.6174 4.00957 17.6044 4.46423C17.5913 4.91889 17.7594 5.3601 18.0717 5.69081C18.384 6.02151 18.8148 6.21462 19.2695 6.22766C20.359 6.25813 21.4569 6.30614 22.5632 6.37166C23.2082 6.4077 23.8174 6.68 24.2744 7.1366C24.7314 7.5932 25.0043 8.2021 25.0409 8.84709C25.0836 9.56937 25.1186 10.2878 25.1461 11.0025H25.1438ZM12.3324 29.8459C12.7811 29.8508 13.2139 29.6795 13.5377 29.3689C13.8616 29.0582 14.0507 28.6329 14.0645 28.1843C14.0782 27.7358 13.9155 27.2997 13.6113 26.9698C13.3071 26.6398 12.8857 26.4423 12.4375 26.4197C11.4089 26.3892 10.372 26.3427 9.32664 26.2802C8.68125 26.2441 8.07178 25.9715 7.61471 25.5144C7.15764 25.0574 6.88501 24.4479 6.84892 23.8025L6.79635 22.8334C6.769 22.3825 6.56479 21.9606 6.22811 21.6594C5.89143 21.3583 5.44949 21.2022 4.99835 21.2251C4.54721 21.248 4.12333 21.448 3.81886 21.7817C3.51439 22.1154 3.35392 22.5557 3.37235 23.0071L3.42721 24.0059C3.51326 25.4886 4.141 26.8879 5.19113 27.938C6.24126 28.9882 7.64059 29.6159 9.12321 29.7019C10.2021 29.7675 11.2718 29.8155 12.3324 29.8459ZM23.5895 23.7317C26.5678 23.7317 28.6112 25.8117 29.0341 28.7099C29.1255 29.3339 28.6021 29.8482 27.9712 29.8482H19.2055C18.5746 29.8482 18.0512 29.3339 18.1426 28.7099C18.5655 25.8094 20.6089 23.7317 23.5895 23.7317ZM13.8569 15.7317C13.4364 12.8357 11.3929 10.7579 8.41235 10.7579C5.43178 10.7579 3.38835 12.8379 2.96549 15.7362C2.87406 16.3602 3.39749 16.8745 4.02835 16.8745H12.7964C13.4272 16.8745 13.9484 16.3602 13.8569 15.7362V15.7317ZM27.2055 18.5751C27.2055 20.8905 25.9026 22.1934 23.5872 22.1934C21.2718 22.1934 19.9712 20.8905 19.9712 18.5751C19.9712 16.2597 21.2741 14.9568 23.5872 14.9568C25.9004 14.9568 27.2055 16.2597 27.2055 18.5751Z" fill="#81D975"/>
</svg>
