<svg width="32" height="32" viewBox="0 0 32 32" fill="none" xmlns="http://www.w3.org/2000/svg">
<path d="M26.666 8.00065H15.9993L14.1193 6.12065C13.6127 5.61398 12.9327 5.33398 12.226 5.33398H5.33268C3.85268 5.33398 2.67935 6.52065 2.67935 8.00065L2.66602 24.0007C2.66602 25.4807 3.85268 26.6673 5.33268 26.6673H26.666C28.1327 26.6673 29.3327 25.4673 29.3327 24.0007V10.6673C29.3327 9.20065 28.1327 8.00065 26.666 8.00065ZM23.9993 18.6673H21.3327V21.334C21.3327 22.0673 20.7327 22.6673 19.9993 22.6673C19.266 22.6673 18.666 22.0673 18.666 21.334V18.6673H15.9993C15.266 18.6673 14.666 18.0673 14.666 17.334C14.666 16.6007 15.266 16.0007 15.9993 16.0007H18.666V13.334C18.666 12.6007 19.266 12.0007 19.9993 12.0007C20.7327 12.0007 21.3327 12.6007 21.3327 13.334V16.0007H23.9993C24.7327 16.0007 25.3327 16.6007 25.3327 17.334C25.3327 18.0673 24.7327 18.6673 23.9993 18.6673Z" fill="#A37800"/>
</svg>
