<svg width="32" height="32" viewBox="0 0 32 32" fill="none" xmlns="http://www.w3.org/2000/svg">
<path d="M8 25.3327C6.89244 25.3327 5.94889 24.9429 5.16933 24.1633C4.38978 23.3838 4 22.4402 4 21.3327V10.666C4 9.55846 4.38978 8.6149 5.16933 7.83535C5.94889 7.05579 6.89244 6.66602 8 6.66602H24C25.1076 6.66602 26.0511 7.05579 26.8307 7.83535C27.6102 8.6149 28 9.55846 28 10.666V21.3327C28 22.4402 27.6102 23.3838 26.8307 24.1633C26.0511 24.9429 25.1076 25.3327 24 25.3327H8ZM8 11.3327H24C24.5236 11.3327 25.0116 11.4225 25.464 11.602C25.9164 11.7816 26.3173 12.0447 26.6667 12.3913V10.666C26.6667 9.93268 26.4058 9.30513 25.884 8.78335C25.3622 8.26157 24.7342 8.00024 24 7.99935H8C7.26667 7.99935 6.63911 8.26068 6.11733 8.78335C5.59556 9.30602 5.33422 9.93357 5.33333 10.666V12.3913C5.68178 12.0447 6.08267 11.7816 6.536 11.602C6.98933 11.4225 7.47733 11.3327 8 11.3327ZM5.37867 14.9727L20.4947 18.6513C20.6609 18.6958 20.8311 18.6998 21.0053 18.6633C21.1796 18.6278 21.3298 18.5518 21.456 18.4353L26.4227 14.2353C26.2298 13.7651 25.9142 13.386 25.476 13.098C25.0378 12.81 24.5458 12.666 24 12.666H8C7.31911 12.666 6.73244 12.8842 6.24 13.3207C5.74667 13.758 5.46 14.3091 5.38 14.974" fill="#A37800"/>
</svg>
