<svg width="19" height="19" viewBox="0 0 19 19" fill="none" xmlns="http://www.w3.org/2000/svg">
<path d="M7.33333 3.66667H11C11 3.18044 10.8068 2.71412 10.463 2.3703C10.1192 2.02649 9.6529 1.83333 9.16667 1.83333C8.68044 1.83333 8.21412 2.02649 7.8703 2.3703C7.52649 2.71412 7.33333 3.18044 7.33333 3.66667ZM5.5 3.66667C5.5 2.69421 5.88631 1.76158 6.57394 1.07394C7.26157 0.386308 8.19421 0 9.16667 0C10.1391 0 11.0718 0.386308 11.7594 1.07394C12.447 1.76158 12.8333 2.69421 12.8333 3.66667H17.4167C17.6598 3.66667 17.8929 3.76324 18.0648 3.93515C18.2368 4.10706 18.3333 4.34022 18.3333 4.58333C18.3333 4.82645 18.2368 5.05961 18.0648 5.23151C17.8929 5.40342 17.6598 5.5 17.4167 5.5H16.6082L15.796 14.9783C15.7179 15.8936 15.2991 16.7462 14.6225 17.3675C13.9459 17.9888 13.0607 18.3334 12.1422 18.3333H6.19117C5.27258 18.3334 4.38742 17.9888 3.7108 17.3675C3.03419 16.7462 2.61541 15.8936 2.53733 14.9783L1.72517 5.5H0.916667C0.673551 5.5 0.440394 5.40342 0.268485 5.23151C0.0965771 5.05961 0 4.82645 0 4.58333C0 4.34022 0.0965771 4.10706 0.268485 3.93515C0.440394 3.76324 0.673551 3.66667 0.916667 3.66667H5.5ZM11.9167 9.16667C11.9167 8.92355 11.8201 8.69039 11.6482 8.51849C11.4763 8.34658 11.2431 8.25 11 8.25C10.7569 8.25 10.5237 8.34658 10.3518 8.51849C10.1799 8.69039 10.0833 8.92355 10.0833 9.16667V12.8333C10.0833 13.0764 10.1799 13.3096 10.3518 13.4815C10.5237 13.6534 10.7569 13.75 11 13.75C11.2431 13.75 11.4763 13.6534 11.6482 13.4815C11.8201 13.3096 11.9167 13.0764 11.9167 12.8333V9.16667ZM7.33333 8.25C7.57645 8.25 7.80961 8.34658 7.98151 8.51849C8.15342 8.69039 8.25 8.92355 8.25 9.16667V12.8333C8.25 13.0764 8.15342 13.3096 7.98151 13.4815C7.80961 13.6534 7.57645 13.75 7.33333 13.75C7.09022 13.75 6.85706 13.6534 6.68515 13.4815C6.51324 13.3096 6.41667 13.0764 6.41667 12.8333V9.16667C6.41667 8.92355 6.51324 8.69039 6.68515 8.51849C6.85706 8.34658 7.09022 8.25 7.33333 8.25ZM4.36333 14.8225C4.40239 15.2803 4.6119 15.7067 4.95041 16.0174C5.28891 16.328 5.73172 16.5003 6.19117 16.5H12.1422C12.6013 16.4998 13.0437 16.3274 13.3818 16.0168C13.7199 15.7061 13.9291 15.28 13.9682 14.8225L14.7675 5.5H3.56583L4.36333 14.8225Z" fill="#EC221F"/>
</svg>
