<svg width="602" height="411" viewBox="0 0 602 411" fill="none" xmlns="http://www.w3.org/2000/svg">
<path d="M270.221 29.1646C271.936 28.9699 273.65 28.7855 275.362 28.6123" stroke="#D03F23" stroke-width="4" stroke-miterlimit="10" stroke-linecap="round"/>
<path d="M290.743 27.3267C305.23 26.3747 319.458 26.167 333.157 26.6452" stroke="#D03F23" stroke-width="4" stroke-miterlimit="10" stroke-linecap="round" stroke-dasharray="14.93 8.96 17.91 14.93"/>
<path d="M339.581 26.9209C363.44 28.1426 385.52 31.469 404.334 36.5772" stroke="#D03F23" stroke-width="4" stroke-miterlimit="10" stroke-linecap="round" stroke-dasharray="8.96 17.91 14.93 8.96 17.91 14.93"/>
<path d="M410.514 38.3555C412.184 38.8646 413.826 39.3885 415.437 39.9269" stroke="#D03F23" stroke-width="4" stroke-miterlimit="10" stroke-linecap="round"/>
<path d="M413.327 387.318C411.672 387.663 409.982 387.995 408.257 388.313" stroke="#D03F23" stroke-width="4" stroke-miterlimit="10" stroke-linecap="round"/>
<path d="M385.695 391.557C366.613 393.653 345.13 394.625 323.154 394.757" stroke="#D03F23" stroke-width="4" stroke-miterlimit="10" stroke-linecap="round" stroke-dasharray="22.05 13.23 26.46 22.05"/>
<path d="M313.652 394.763C267.424 394.546 220.241 390.825 189.623 386.21C151.729 380.499 116.04 364.547 86.8476 339.719C69.9888 325.381 53.913 306.997 43.6123 284.103" stroke="#D03F23" stroke-width="4" stroke-miterlimit="10" stroke-linecap="round" stroke-dasharray="13.23 26.46 22.05 13.23 26.46 22.05"/>
<path d="M40.0098 275.249C39.4222 273.639 38.864 272.008 38.335 270.356" stroke="#D03F23" stroke-width="4" stroke-miterlimit="10" stroke-linecap="round"/>
<path d="M472.342 67.835C473.777 68.7939 475.2 69.7657 476.61 70.7522" stroke="#D03F23" stroke-width="4" stroke-miterlimit="10" stroke-linecap="round"/>
<path d="M491.389 81.9658C504.775 92.9696 516.721 105.244 526.968 118.4" stroke="#D03F23" stroke-width="4" stroke-miterlimit="10" stroke-linecap="round" stroke-dasharray="17.95 10.77 21.53 17.95"/>
<path d="M531.609 124.58C547.593 146.661 558.865 170.965 564.267 195.755" stroke="#D03F23" stroke-width="4" stroke-miterlimit="10" stroke-linecap="round" stroke-dasharray="10.77 21.53 17.95 10.77 21.53 17.95"/>
<path d="M565.732 203.345C566.019 205.046 566.279 206.75 566.509 208.454" stroke="#D03F23" stroke-width="4" stroke-miterlimit="10" stroke-linecap="round"/>
<g opacity="0.4">
<path d="M539.914 188.741C487.575 139.374 398.402 131.455 352.66 188.555C329.545 217.408 328.141 258.89 336.142 281.615C361.036 352.317 480.666 462.366 568.401 382.839C625.15 331.398 597.618 243.167 539.914 188.741Z" fill="#CCC0B2"/>
</g>
<mask id="mask0_57_2728" style="mask-type:luminance" maskUnits="userSpaceOnUse" x="265" y="118" width="337" height="293">
<path d="M546.496 137.315C494.156 87.9485 317.693 145.032 271.951 202.131C248.836 230.984 299.407 336.793 307.409 359.519C316.652 385.773 374.272 349.071 396.58 364.932C444.649 406.437 513.246 432.834 568.402 382.837C625.15 331.398 604.199 191.742 546.496 137.315Z" fill="white"/>
</mask>
<g mask="url(#mask0_57_2728)">
<path d="M500.17 138.32C500.17 138.32 521.303 137.255 528.366 151.957C534.359 164.436 528.71 171.006 531.221 177.723C533.731 184.441 541.776 186.154 538.318 195.672C534.861 205.189 547.661 204.778 546.42 214.936C545.18 225.094 538.454 225.599 546.257 231.066C554.058 236.534 560.247 253.123 550.849 259.194C537.381 267.895 504.389 240.828 480.894 248.04C457.4 255.252 433.142 245.887 435.833 236.59C438.525 227.294 453.512 224.589 449.106 216.514C444.701 208.438 442.164 198.072 449.435 190.425C456.707 182.778 453.748 183.278 453.871 173.578C453.946 167.613 458.651 160.462 460.856 153.998C463.502 146.241 464.426 143.048 474.22 138.725C489.877 131.814 500.17 138.32 500.17 138.32Z" fill="#442017"/>
</g>
<mask id="mask1_57_2728" style="mask-type:luminance" maskUnits="userSpaceOnUse" x="265" y="118" width="337" height="293">
<path d="M546.496 137.315C494.156 87.9485 317.693 145.032 271.951 202.131C248.836 230.984 299.407 336.793 307.409 359.519C316.652 385.773 374.272 349.071 396.58 364.932C444.649 406.437 513.246 432.834 568.402 382.837C625.15 331.398 604.199 191.742 546.496 137.315Z" fill="white"/>
</mask>
<g mask="url(#mask1_57_2728)">
<path d="M502.232 140.256C502.232 140.256 503.839 121.96 524.369 129.215C544.899 136.469 543.191 161.243 520.395 161.156C497.598 161.069 502.232 140.256 502.232 140.256Z" fill="#442017"/>
</g>
<mask id="mask2_57_2728" style="mask-type:luminance" maskUnits="userSpaceOnUse" x="265" y="118" width="337" height="293">
<path d="M546.496 137.315C494.156 87.9485 317.693 145.032 271.951 202.131C248.836 230.984 299.407 336.793 307.409 359.519C316.652 385.773 374.272 349.071 396.58 364.932C444.649 406.437 513.246 432.834 568.402 382.837C625.15 331.398 604.199 191.742 546.496 137.315Z" fill="white"/>
</mask>
<g mask="url(#mask2_57_2728)">
<path d="M530.715 160.157C530.82 160.174 530.929 160.177 531.038 160.161C531.53 160.091 531.838 159.683 531.724 159.251C531.668 159.04 525.885 138 501.783 137.519C501.278 137.508 500.886 137.855 500.907 138.292C500.927 138.73 501.353 139.099 501.858 139.103C524.435 139.562 529.728 158.692 529.942 159.507C530.029 159.843 530.347 160.096 530.715 160.157Z" fill="#FCF9ED"/>
</g>
<mask id="mask3_57_2728" style="mask-type:luminance" maskUnits="userSpaceOnUse" x="265" y="118" width="337" height="293">
<path d="M546.496 137.315C494.156 87.9485 317.693 145.032 271.951 202.131C248.836 230.984 299.407 336.793 307.409 359.519C316.652 385.773 374.272 349.071 396.58 364.932C444.649 406.437 513.246 432.834 568.402 382.837C625.15 331.398 604.199 191.742 546.496 137.315Z" fill="white"/>
</mask>
<g mask="url(#mask3_57_2728)">
<path d="M500.386 154.072C500.386 154.072 502.037 170.121 505.862 174.008C509.687 177.894 514.855 171.218 514.855 171.218C514.855 171.218 510.418 146.267 500.386 154.072Z" fill="#442017"/>
<path d="M481.404 150.891C481.404 150.891 487.529 165.066 498.995 164.284C510.459 163.502 504.926 153.002 504.926 153.002C504.926 153.002 486.316 140.719 481.404 150.891Z" fill="#442017"/>
<path d="M484.519 150.43C484.519 150.43 475.917 165.556 465.818 160.673C455.719 155.791 473.873 142.772 480.863 144.824C487.851 146.875 484.519 150.43 484.519 150.43Z" fill="#442017"/>
<path d="M504.199 168.096C504.199 168.096 505.634 171.18 503.486 180.807C501.339 190.434 499.753 192.625 499.753 192.625C499.753 192.625 507.453 185.985 508.647 172.279C510.405 152.075 504.199 168.096 504.199 168.096Z" fill="#442017"/>
</g>
<mask id="mask4_57_2728" style="mask-type:luminance" maskUnits="userSpaceOnUse" x="265" y="118" width="337" height="293">
<path d="M546.496 137.315C494.156 87.9485 317.693 145.032 271.951 202.131C248.836 230.984 299.407 336.793 307.409 359.519C316.652 385.773 374.272 349.071 396.58 364.932C444.649 406.437 513.246 432.834 568.402 382.837C625.15 331.398 604.199 191.742 546.496 137.315Z" fill="white"/>
</mask>
<g mask="url(#mask4_57_2728)">
<path d="M415.944 273.614L422.008 257.466C427.793 242.059 442.527 231.854 458.984 231.854H525.746C544.32 231.854 560.385 244.795 564.338 262.944L576.211 317.445L531.801 348.933L541.464 410.314C541.464 410.314 433.992 406.408 426.413 396.499L435.019 323.253L415.944 273.614Z" fill="#C1725C"/>
</g>
<mask id="mask5_57_2728" style="mask-type:luminance" maskUnits="userSpaceOnUse" x="265" y="118" width="337" height="293">
<path d="M546.496 137.315C494.156 87.9485 317.693 145.032 271.951 202.131C248.836 230.984 299.407 336.793 307.409 359.519C316.652 385.773 374.272 349.071 396.58 364.932C444.649 406.437 513.246 432.834 568.402 382.837C625.15 331.398 604.199 191.742 546.496 137.315Z" fill="white"/>
</mask>
<g mask="url(#mask5_57_2728)">
<path d="M415.945 273.614L392.765 299.985L345.838 253.965L325.129 267.468C325.129 267.468 350.322 323.764 362.434 337.891C374.547 352.018 396.359 367.208 414.886 349.41L438.536 320.538L415.945 273.614Z" fill="#B76856"/>
</g>
<mask id="mask6_57_2728" style="mask-type:luminance" maskUnits="userSpaceOnUse" x="265" y="118" width="337" height="293">
<path d="M546.496 137.315C494.156 87.9485 317.693 145.032 271.951 202.131C248.836 230.984 299.407 336.793 307.409 359.519C316.652 385.773 374.272 349.071 396.58 364.932C444.649 406.437 513.246 432.834 568.402 382.837C625.15 331.398 604.199 191.742 546.496 137.315Z" fill="white"/>
</mask>
<g mask="url(#mask6_57_2728)">
<path d="M399.88 312.969C400.016 312.969 400.154 312.934 400.28 312.86C400.658 312.639 400.785 312.153 400.564 311.776L392.796 298.506C392.574 298.127 392.087 298 391.711 298.222C391.333 298.443 391.206 298.929 391.427 299.306L399.195 312.576C399.343 312.829 399.607 312.969 399.88 312.969Z" fill="#7D351D"/>
</g>
<mask id="mask7_57_2728" style="mask-type:luminance" maskUnits="userSpaceOnUse" x="265" y="118" width="337" height="293">
<path d="M546.496 137.315C494.156 87.9485 317.693 145.032 271.951 202.131C248.836 230.984 299.407 336.793 307.409 359.519C316.652 385.773 374.272 349.071 396.58 364.932C444.649 406.437 513.246 432.834 568.402 382.837C625.15 331.398 604.199 191.742 546.496 137.315Z" fill="white"/>
</mask>
<g mask="url(#mask7_57_2728)">
<path d="M415.944 273.614C415.944 273.614 420.72 259.056 423.329 253.965C433.495 234.13 444.376 231.462 460.116 231.854C466.227 232.006 476.719 280.625 476.719 280.625C476.719 280.625 501.41 232.622 511.295 231.854C528.664 230.504 553.988 231.132 563.328 259.197L581.229 314.783L526.204 317.03L541.641 410.831C541.641 410.831 438.317 411.813 426.414 396.498L435.02 319.805L415.944 273.614Z" fill="#6059C9"/>
</g>
<mask id="mask8_57_2728" style="mask-type:luminance" maskUnits="userSpaceOnUse" x="265" y="118" width="337" height="293">
<path d="M546.496 137.315C494.156 87.9485 317.693 145.032 271.951 202.131C248.836 230.984 299.407 336.793 307.409 359.519C316.652 385.773 374.272 349.071 396.58 364.932C444.649 406.437 513.246 432.834 568.402 382.837C625.15 331.398 604.199 191.742 546.496 137.315Z" fill="white"/>
</mask>
<g mask="url(#mask8_57_2728)">
<path d="M518.764 178.457L515.332 177.597L509.625 184.225C507.558 186.626 503.631 184.91 503.987 181.762L505.791 165.792C506.12 162.879 502.749 161.035 500.473 162.882L496.067 166.46L492.024 165.439C487.246 164.233 483.821 160.042 483.591 155.119L483.477 152.68C481.103 158.037 474.995 160.653 469.48 158.674L469.363 158.633L458.339 185.75C453.999 196.423 457.905 208.308 467.039 214.017L465.765 227.195C464.771 237.489 472.63 246.749 483.231 247.774L483.67 247.816C494.271 248.84 489.83 248.681 490.825 238.386L502.064 238.542L508.113 199.009L513.279 200.305C519.22 201.794 525.303 198.153 526.797 192.213L526.857 191.973C528.35 186.03 524.709 179.948 518.764 178.457Z" fill="#C1725C"/>
<path d="M464.221 174.331C463.768 175.433 464.294 176.694 465.396 177.147C466.498 177.6 467.758 177.074 468.211 175.972C468.664 174.87 468.139 173.61 467.037 173.156C465.935 172.703 464.675 173.229 464.221 174.331Z" fill="#111111"/>
<path d="M481.152 178.722C480.975 180.013 481.88 181.204 483.171 181.38C484.464 181.557 485.654 180.653 485.83 179.361C486.007 178.069 485.103 176.879 483.811 176.702C482.519 176.526 481.329 177.43 481.152 178.722Z" fill="#111111"/>
<path d="M470.511 204.946C470.599 204.992 470.704 205.007 470.81 204.985C470.916 204.962 473.458 204.44 474.792 206.634C474.92 206.846 475.196 206.913 475.409 206.785C475.621 206.655 475.689 206.38 475.56 206.168C473.886 203.416 470.649 204.101 470.616 204.108C470.375 204.162 470.223 204.401 470.276 204.643C470.305 204.779 470.394 204.888 470.511 204.946Z" fill="#7D351D"/>
<path d="M493.556 172.417C492.684 172.452 491.753 171.986 490.827 171.588C489.902 171.167 488.964 170.768 488.136 170.45C487.306 170.13 486.341 169.796 485.374 169.488C484.419 169.162 483.411 168.88 482.799 168.274C482.203 167.7 482.245 166.726 483.496 165.99C484.685 165.263 487.187 164.937 489.933 165.988C492.672 167.05 494.275 168.956 494.639 170.28C495.039 171.652 494.393 172.393 493.556 172.417Z" fill="#442017"/>
<path d="M463.819 165.23C464.359 165.523 465.077 165.471 465.773 165.467C466.473 165.445 467.177 165.444 467.788 165.468C468.4 165.49 469.102 165.545 469.799 165.618C470.492 165.675 471.206 165.78 471.762 165.529C472.298 165.295 472.543 164.578 471.959 163.66C471.411 162.768 469.922 161.765 467.896 161.684C465.871 161.613 464.328 162.501 463.73 163.35C463.095 164.221 463.297 164.956 463.819 165.23Z" fill="#381812"/>
<path d="M485.354 181.972C485.354 181.972 483.61 180.05 481.232 181.388L485.354 181.972Z" fill="#C1725C"/>
<path d="M481.06 182.199C480.835 182.15 480.631 182.01 480.509 181.794C480.284 181.394 480.426 180.887 480.826 180.662C483.168 179.345 485.215 180.58 485.97 181.414C486.278 181.753 486.253 182.279 485.914 182.587C485.574 182.894 485.049 182.87 484.742 182.533C484.601 182.382 483.36 181.145 481.641 182.11C481.458 182.214 481.252 182.24 481.06 182.199Z" fill="#7D351D"/>
<path d="M467.023 177.155C467.023 177.155 465.932 176.027 464.557 176.989L467.023 177.155Z" fill="#C1725C"/>
<path d="M464.383 177.8C464.185 177.758 464.002 177.643 463.875 177.463C463.613 177.088 463.705 176.57 464.08 176.306C465.629 175.223 467.07 176.008 467.619 176.577C467.938 176.907 467.93 177.432 467.6 177.752C467.27 178.069 466.748 178.058 466.432 177.739C466.281 177.593 465.747 177.168 465.032 177.669C464.836 177.806 464.6 177.847 464.383 177.8Z" fill="#7D351D"/>
<path d="M482.769 189.444C482.153 188.813 481.175 188.726 480.414 189.172C479.029 189.985 476.104 191.326 472.414 190.921C471.508 190.822 470.83 191.755 471.038 192.643C471.495 194.594 473.795 200.537 478.929 199.349C485.183 197.899 484.374 191.089 482.769 189.444Z" fill="white"/>
<path d="M475.127 172.192L472.462 180.62L470.263 180.293C469.344 179.961 468.331 180.437 468 181.356L467.448 182.884C466.995 184.139 467.636 185.525 468.885 185.992L472.676 187.409" fill="#C1725C"/>
<path d="M472.504 188.222C472.464 188.213 472.423 188.201 472.385 188.187L468.593 186.77C466.927 186.146 466.062 184.277 466.667 182.603L467.218 181.075C467.452 180.422 467.93 179.9 468.559 179.604C469.186 179.308 469.894 179.273 470.544 179.511L471.882 179.7L474.334 171.942C474.475 171.505 474.951 171.264 475.378 171.401C475.815 171.539 476.058 172.006 475.92 172.443L473.039 181.546L470.14 181.115C469.744 180.991 469.491 181.001 469.264 181.108C469.038 181.215 468.866 181.402 468.781 181.639L468.229 183.166C467.934 183.989 468.358 184.907 469.176 185.214L472.968 186.632C473.398 186.793 473.616 187.271 473.454 187.701C473.308 188.091 472.899 188.306 472.504 188.222Z" fill="#7D351D"/>
<path d="M516.342 193.435C516.189 193.402 516.045 193.326 515.926 193.208L512.868 190.13C512.698 189.958 512.611 189.72 512.63 189.478C512.649 189.237 512.773 189.015 512.97 188.873L517.673 185.46C518.044 185.19 518.564 185.275 518.834 185.643C519.104 186.014 519.021 186.535 518.65 186.804L514.731 189.648L517.106 192.038C517.43 192.364 517.427 192.891 517.102 193.213C516.895 193.417 516.607 193.492 516.342 193.435Z" fill="#7D351D"/>
<path d="M467.011 214.29C467.011 214.29 486.55 220.066 492.105 213.352C492.105 213.352 489.835 226.077 465.898 225.8L467.011 214.29Z" fill="#7D351D"/>
<path d="M514.212 205.331C511.645 204.781 509.911 202.314 510.309 199.686C510.72 196.956 513.278 195.069 516.011 195.481C518.719 195.898 520.631 198.448 520.218 201.18C520.019 202.504 519.317 203.669 518.239 204.465C517.163 205.259 515.841 205.586 514.517 205.387C514.416 205.371 514.314 205.352 514.212 205.331Z" fill="#467B6C"/>
<path d="M495.18 189.621C494.885 190.998 492.783 191.715 490.486 191.223C488.188 190.731 486.565 189.216 486.86 187.839C487.154 186.461 489.257 185.744 491.553 186.237C493.851 186.728 495.474 188.243 495.18 189.621Z" fill="#7D351D"/>
</g>
<mask id="mask9_57_2728" style="mask-type:luminance" maskUnits="userSpaceOnUse" x="265" y="118" width="337" height="293">
<path d="M546.496 137.315C494.156 87.9485 317.693 145.032 271.951 202.131C248.836 230.984 299.407 336.793 307.409 359.519C316.652 385.773 374.272 349.071 396.58 364.932C444.649 406.437 513.246 432.834 568.402 382.837C625.15 331.398 604.199 191.742 546.496 137.315Z" fill="white"/>
</mask>
<g mask="url(#mask9_57_2728)">
<g opacity="0.2">
<mask id="mask10_57_2728" style="mask-type:luminance" maskUnits="userSpaceOnUse" x="415" y="231" width="167" height="180">
<path d="M415.944 273.614C415.944 273.614 420.72 259.056 423.329 253.965C433.495 234.13 444.376 231.462 460.116 231.854C466.227 232.006 476.719 280.625 476.719 280.625C476.719 280.625 501.41 232.622 511.295 231.854C528.664 230.504 553.988 231.132 563.328 259.197L581.229 314.783L526.204 317.03L541.641 410.831C541.641 410.831 438.317 411.813 426.414 396.498L435.02 319.805L415.944 273.614Z" fill="white"/>
</mask>
<g mask="url(#mask10_57_2728)">
<path d="M580.858 248.884H411.664C408.724 248.884 406.34 246.501 406.34 243.56C406.34 240.619 408.724 238.235 411.664 238.235H580.857C583.797 238.235 586.181 240.619 586.181 243.56C586.182 246.5 583.798 248.884 580.858 248.884Z" fill="#F2EAE1"/>
<path d="M580.858 279.607H411.664C408.724 279.607 406.34 277.223 406.34 274.282C406.34 271.342 408.724 268.958 411.664 268.958H580.857C583.797 268.958 586.181 271.342 586.181 274.282C586.182 277.222 583.798 279.607 580.858 279.607Z" fill="#F2EAE1"/>
<path d="M580.858 310.33H411.664C408.724 310.33 406.34 307.947 406.34 305.006C406.34 302.066 408.724 299.682 411.664 299.682H580.857C583.797 299.682 586.181 302.066 586.181 305.006C586.182 307.947 583.798 310.33 580.858 310.33Z" fill="#F2EAE1"/>
<path d="M580.858 341.053H411.664C408.724 341.053 406.34 338.669 406.34 335.729C406.34 332.787 408.724 330.404 411.664 330.404H580.857C583.797 330.404 586.181 332.787 586.181 335.729C586.182 338.669 583.798 341.053 580.858 341.053Z" fill="#F2EAE1"/>
<path d="M580.858 371.776H411.664C408.724 371.776 406.34 369.392 406.34 366.451C406.34 363.51 408.724 361.127 411.664 361.127H580.857C583.797 361.127 586.181 363.51 586.181 366.451C586.182 369.392 583.798 371.776 580.858 371.776Z" fill="#F2EAE1"/>
<path d="M580.858 402.499H411.664C408.724 402.499 406.34 400.115 406.34 397.175C406.34 394.234 408.724 391.851 411.664 391.851H580.857C583.797 391.851 586.181 394.234 586.181 397.175C586.182 400.115 583.798 402.499 580.858 402.499Z" fill="#F2EAE1"/>
</g>
</g>
</g>
<mask id="mask11_57_2728" style="mask-type:luminance" maskUnits="userSpaceOnUse" x="265" y="118" width="337" height="293">
<path d="M546.496 137.315C494.156 87.9485 317.693 145.032 271.951 202.131C248.836 230.984 299.407 336.793 307.409 359.519C316.652 385.773 374.272 349.071 396.58 364.932C444.649 406.437 513.246 432.834 568.402 382.837C625.15 331.398 604.199 191.742 546.496 137.315Z" fill="white"/>
</mask>
<g mask="url(#mask11_57_2728)">
<path d="M437.699 327.747C437.425 327.747 437.163 327.589 437.045 327.322L432.758 317.555C429.527 310.192 429.316 301.995 432.166 294.474L437.295 280.951C437.436 280.583 437.845 280.397 438.215 280.538C438.583 280.677 438.768 281.088 438.629 281.456L433.5 294.979C430.782 302.149 430.983 309.963 434.064 316.981L438.351 326.748C438.508 327.108 438.346 327.528 437.985 327.688C437.891 327.727 437.794 327.747 437.699 327.747Z" fill="#322380"/>
</g>
<mask id="mask12_57_2728" style="mask-type:luminance" maskUnits="userSpaceOnUse" x="265" y="118" width="337" height="293">
<path d="M546.496 137.315C494.156 87.9485 317.693 145.032 271.951 202.131C248.836 230.984 299.407 336.793 307.409 359.519C316.652 385.773 374.272 349.071 396.58 364.932C444.649 406.437 513.246 432.834 568.402 382.837C625.15 331.398 604.199 191.742 546.496 137.315Z" fill="white"/>
</mask>
<g mask="url(#mask12_57_2728)">
<path d="M420.718 313.679C418.503 313.737 416.595 314.459 416.365 317.088C415.404 321.737 419.481 323.538 423.326 323.924C419.596 324.648 421.607 330.717 426.265 332.462L451.04 343.207C452.564 343.913 454.594 344.098 456.789 343.99L541.066 377.231C562.213 385.227 584.33 368.023 581.783 345.559L575.84 315.569L526.203 317.029L528.907 331.039L469.416 312.228C468.256 310.258 466.964 308.361 465.541 306.612C465.541 306.612 451.363 292.181 445.683 288.247C445.073 287.825 444.442 287.408 443.727 287.215C443.012 287.021 442.189 287.083 441.613 287.548C440.862 288.154 440.727 289.237 440.76 290.201C440.861 293.192 442.017 296.01 443.169 298.792C440.693 297.968 438.048 297.069 435.169 296.049C428.945 294.334 419.029 290.245 417.261 298.518C416.892 301.442 418.903 302.712 421.268 303.289C417.792 303.125 414.313 303.883 414.38 308.214C413.876 312.132 417.213 313.237 420.718 313.679ZM424.856 314.035C425.431 314.084 425.959 314.14 426.413 314.219C425.954 314.183 425.425 314.113 424.856 314.035Z" fill="#C1725C"/>
<path d="M528.67 330.609C528.72 330.609 528.77 330.605 528.821 330.595C529.251 330.512 529.533 330.096 529.449 329.666L526.857 316.231L520.393 316.282C520.386 316.282 520.38 316.282 520.373 316.282C519.138 316.282 518.129 315.321 518.072 314.086L516.364 277.686C516.344 277.247 515.977 276.901 515.534 276.931C515.096 276.952 514.759 277.323 514.779 277.761L516.488 314.16C516.585 316.258 518.294 317.912 520.407 317.869L525.551 317.827L527.894 329.967C527.966 330.346 528.298 330.609 528.67 330.609Z" fill="#322380"/>
<path opacity="0.5" d="M443.17 298.791L456.651 304.594C456.651 304.594 443.84 294.483 441.31 293.656L443.17 298.791Z" fill="#AF4E4A"/>
<path d="M429.539 306.644C429.869 306.644 430.177 306.437 430.29 306.108C430.432 305.693 430.21 305.243 429.797 305.101C428.951 304.811 421.494 302.267 420.008 302.188C419.592 302.125 419.197 302.498 419.173 302.936C419.15 303.373 419.485 303.747 419.923 303.771C420.876 303.823 426.17 305.535 429.282 306.601C429.368 306.63 429.454 306.644 429.539 306.644Z" fill="#7D351D"/>
<path d="M537.729 334.939C538.061 334.939 538.369 334.73 538.481 334.398C538.621 333.983 538.397 333.534 537.98 333.394L521.254 327.787C520.841 327.651 520.389 327.872 520.25 328.288C520.111 328.703 520.335 329.152 520.751 329.291L537.477 334.898C537.56 334.926 537.645 334.939 537.729 334.939Z" fill="#7D351D"/>
<path d="M427.564 316.801C427.899 316.801 428.21 316.587 428.318 316.252C428.452 315.836 428.224 315.389 427.808 315.254L420.232 312.805C419.815 312.671 419.368 312.9 419.234 313.315C419.099 313.731 419.328 314.178 419.744 314.314L427.32 316.763C427.401 316.788 427.483 316.801 427.564 316.801Z" fill="#7D351D"/>
<path d="M427.436 325.945C427.777 325.945 428.093 325.723 428.196 325.379C428.322 324.96 428.083 324.519 427.664 324.393L423.553 323.164C423.139 323.039 422.693 323.277 422.567 323.697C422.441 324.116 422.68 324.558 423.099 324.683L427.21 325.912C427.285 325.934 427.361 325.945 427.436 325.945Z" fill="#7D351D"/>
</g>
<mask id="mask13_57_2728" style="mask-type:luminance" maskUnits="userSpaceOnUse" x="265" y="118" width="337" height="293">
<path d="M546.496 137.315C494.156 87.9485 317.693 145.032 271.951 202.131C248.836 230.984 299.407 336.793 307.409 359.519C316.652 385.773 374.272 349.071 396.58 364.932C444.649 406.437 513.246 432.834 568.402 382.837C625.15 331.398 604.199 191.742 546.496 137.315Z" fill="white"/>
</mask>
<g mask="url(#mask13_57_2728)">
<path d="M334.827 241.824L348.141 256.222L339.139 261.876L331.844 255.479L334.827 241.824Z" fill="#B76856"/>
</g>
<mask id="mask14_57_2728" style="mask-type:luminance" maskUnits="userSpaceOnUse" x="265" y="118" width="337" height="293">
<path d="M546.496 137.315C494.156 87.9485 317.693 145.032 271.951 202.131C248.836 230.984 299.407 336.793 307.409 359.519C316.652 385.773 374.272 349.071 396.58 364.932C444.649 406.437 513.246 432.834 568.402 382.837C625.15 331.398 604.199 191.742 546.496 137.315Z" fill="white"/>
</mask>
<g mask="url(#mask14_57_2728)">
<path d="M340.606 274.143H303.659C302.419 274.143 301.413 273.137 301.413 271.897V205.379C301.413 204.138 302.419 203.133 303.659 203.133H340.605C341.846 203.133 342.851 204.138 342.851 205.379V271.897C342.851 273.137 341.846 274.143 340.606 274.143Z" fill="#2B2B39"/>
<path d="M340.253 208.427V268.848C340.253 269.959 339.541 270.859 338.662 270.859H305.604C304.725 270.859 304.013 269.959 304.013 268.848V208.427C304.013 207.316 304.725 206.415 305.604 206.415H338.662C339.541 206.415 340.253 207.316 340.253 208.427Z" fill="#5F5F75"/>
<path d="M317.408 253.528C317.368 256.259 315.101 258.461 312.371 258.421L296.777 258.196C294.047 258.157 291.844 255.89 291.883 253.159C291.923 250.429 294.19 248.226 296.92 248.265L312.514 248.49C315.244 248.53 317.446 250.796 317.408 253.528Z" fill="#B76856"/>
<path d="M317.72 243.516C317.68 246.248 315.414 248.45 312.683 248.41L295.85 248.167C293.119 248.127 290.917 245.861 290.957 243.13C290.996 240.4 293.262 238.197 295.993 238.237L312.826 238.48C315.557 238.519 317.759 240.785 317.72 243.516Z" fill="#B76856"/>
<path d="M343.685 258.775C341.734 260.685 338.573 260.651 336.662 258.7L324.886 246.67C322.975 244.717 323.009 241.558 324.96 239.647H324.961C326.912 237.737 330.072 237.771 331.983 239.722L343.759 251.752C345.67 253.703 345.636 256.864 343.685 258.775Z" fill="#B76856"/>
<path d="M313.903 263.274C313.863 266.006 311.597 268.208 308.866 268.168L298.739 268.022C296.008 267.983 293.806 265.716 293.845 262.985C293.885 260.254 296.152 258.052 298.882 258.091L309.009 258.238C311.741 258.277 313.943 260.544 313.903 263.274Z" fill="#B76856"/>
<path d="M313.67 272.727C313.631 275.458 311.364 277.66 308.634 277.62L303.646 277.549C300.915 277.509 298.713 275.243 298.752 272.512C298.792 269.782 301.058 267.579 303.789 267.619L308.776 267.691C311.508 267.729 313.71 269.996 313.67 272.727Z" fill="#B76856"/>
<path d="M295.819 248.592C295.817 248.571 295.817 248.551 295.817 248.528C295.819 248.038 296.219 247.642 296.709 247.645L312.569 247.718C313.059 247.719 313.469 248.107 313.453 248.61C313.451 249.1 313.051 249.496 312.561 249.493L296.7 249.42C296.232 249.418 295.849 249.053 295.819 248.592Z" fill="#7D351D"/>
<path d="M295.882 258.963C295.88 258.94 295.88 258.918 295.88 258.894C295.885 258.403 296.287 258.011 296.778 258.016L311.345 258.172C311.834 258.178 312.23 258.572 312.223 259.069C312.218 259.56 311.816 259.952 311.326 259.947L296.759 259.79C296.291 259.786 295.912 259.421 295.882 258.963Z" fill="#7D351D"/>
<path d="M298.321 268.517C298.32 268.502 298.319 268.488 298.319 268.473C298.312 267.983 298.702 267.58 299.192 267.571L310.638 267.377C311.127 267.37 311.532 267.766 311.541 268.25C311.549 268.74 311.158 269.143 310.668 269.152L299.222 269.346C298.746 269.354 298.352 268.987 298.321 268.517Z" fill="#7D351D"/>
</g>
<path d="M384.715 195.388C387.1 197.683 389.053 196.852 389.053 193.541V182.866C389.053 179.556 391.761 176.847 395.071 176.847H427.992C431.302 176.847 434.011 174.138 434.011 170.828V128.635C434.011 125.324 431.302 122.616 427.992 122.616H313.377C310.066 122.616 307.358 125.324 307.358 128.635V170.828C307.358 174.138 310.067 176.847 313.377 176.847H359.419C362.729 176.847 367.391 178.724 369.776 181.02L384.715 195.388Z" fill="#F0C86A"/>
<path d="M320.442 139.701H420.93C422.13 139.701 423.102 138.728 423.102 137.528C423.102 136.328 422.13 135.355 420.93 135.355H320.442C319.242 135.355 318.27 136.328 318.27 137.528C318.27 138.728 319.242 139.701 320.442 139.701Z" fill="white"/>
<path d="M320.442 150.536H420.93C422.13 150.536 423.102 149.563 423.102 148.363C423.102 147.163 422.13 146.19 420.93 146.19H320.442C319.242 146.19 318.27 147.163 318.27 148.363C318.27 149.563 319.242 150.536 320.442 150.536Z" fill="white"/>
<path d="M320.442 161.37H391.413C392.613 161.37 393.586 160.397 393.586 159.197C393.586 157.997 392.613 157.024 391.413 157.024H320.442C319.242 157.024 318.27 157.997 318.27 159.197C318.27 160.397 319.242 161.37 320.442 161.37Z" fill="white"/>
<g opacity="0.4">
<path d="M208.439 259.122C148.56 301.346 55.663 296.816 15.332 233.107C-5.04802 200.914 -1.52943 159.084 9.44158 137.395C43.5746 69.9177 180.103 -23.7961 261.05 68.2988C313.407 127.867 274.454 212.568 208.439 259.122Z" fill="#CCC0B2"/>
</g>
<mask id="mask15_57_2728" style="mask-type:luminance" maskUnits="userSpaceOnUse" x="0" y="0" width="286" height="287">
<path d="M208.439 259.122C148.56 301.346 55.663 296.816 15.332 233.107C-5.04802 200.914 -1.52943 159.084 9.44158 137.395C23.7985 109.013 44.9789 33.2207 83.8109 11.3346C137.301 -18.8128 214.15 14.9402 261.05 68.2988C313.407 127.867 274.454 212.568 208.439 259.122Z" fill="white"/>
</mask>
<g mask="url(#mask15_57_2728)">
<path d="M181.611 160.196L204.253 185.954L250.091 141.002L270.321 154.192L233.88 222.982C227.835 246.279 197.897 252.854 182.645 234.234L159.544 206.031L181.611 160.196Z" fill="#E69773"/>
<path d="M197.303 198.639C197.17 198.639 197.035 198.605 196.912 198.533C196.544 198.316 196.42 197.842 196.635 197.473L204.224 184.511C204.44 184.14 204.915 184.017 205.283 184.233C205.652 184.45 205.776 184.924 205.561 185.293L197.972 198.255C197.828 198.502 197.569 198.639 197.303 198.639Z" fill="#AF4E4A"/>
<path d="M250.255 143.03L250.194 143.027C250.054 142.333 249.914 141.639 249.773 140.945L249.771 140.936C247.541 129.928 241.7 117.808 239.409 106.814C239.238 105.997 239.067 105.162 239.169 104.334C239.32 103.112 240.104 101.986 241.196 101.419C242.29 100.851 243.661 100.86 244.748 101.441C246.019 102.121 246.8 103.457 247.316 104.803C247.996 106.577 248.637 108.358 249.331 110.127C250.014 111.867 252.587 111.456 252.693 109.589C253.079 102.795 253.457 96.0003 253.826 89.2053C253.898 87.8655 254.021 86.4052 254.941 85.4291C256.197 84.0962 258.755 84.4641 259.585 86.0959C259.922 86.7584 259.989 87.5209 260.05 88.2619C260.429 92.8944 261.004 97.5141 261.188 102.159C261.33 105.77 261.96 108.054 261.835 110.679C261.876 109.818 261.826 108.535 261.868 107.674C262.12 102.456 262.434 97.247 262.469 92.0286C262.474 91.217 262.795 90.2951 263.225 89.6067C263.509 89.1536 263.936 88.7883 264.435 88.5961C264.935 88.404 265.512 88.3911 266 88.6134C266.573 88.8727 266.972 89.425 267.187 90.0168C267.556 91.0317 267.772 92.1104 267.82 93.183C267.959 96.2648 268.074 99.3483 268.224 102.43C268.377 105.57 268.279 108.802 268.643 111.925C268.543 111.06 268.711 110.115 268.792 109.255C268.962 107.45 269.174 105.648 269.406 103.849C269.639 102.045 269.69 99.8739 271.122 98.5531C271.728 97.9948 272.653 97.6735 273.383 98.0534C273.719 98.2283 273.975 98.5316 274.157 98.8633C274.759 99.9617 274.631 101.302 274.578 102.508C274.527 103.684 274.478 104.86 274.429 106.036C274.328 108.414 274.225 110.793 274.091 113.17C274.031 114.531 273.972 115.891 273.913 117.251L275.466 112.305C276.032 110.397 277.988 107.355 279.785 108.211C280.818 108.704 281.336 109.877 281.004 110.972L274.252 140.953" fill="#E69773"/>
<path d="M250.255 143.03L250.194 143.027C250.054 142.333 249.914 141.639 249.773 140.945L249.771 140.935C247.541 129.928 241.7 117.808 239.409 106.814C239.238 105.997 239.067 105.162 239.169 104.334C239.32 103.112 240.104 101.986 241.196 101.419C242.29 100.851 243.661 100.86 244.748 101.441C246.019 102.121 246.8 103.457 247.316 104.803C247.996 106.577 248.637 108.358 249.331 110.127C250.014 111.867 252.587 111.456 252.693 109.589C253.079 102.795 253.457 96.0003 253.826 89.2053C253.898 87.8655 254.021 86.4052 254.941 85.4291C256.197 84.0962 258.755 84.4641 259.585 86.0959C259.922 86.7584 259.989 87.5209 260.05 88.2619C260.429 92.8944 261.004 97.5141 261.188 102.159C261.33 105.77 261.96 108.054 261.835 110.679C261.876 109.818 261.826 108.535 261.868 107.674C262.12 102.456 262.434 97.247 262.469 92.0286C262.474 91.217 262.795 90.2951 263.225 89.6067C263.509 89.1536 263.936 88.7883 264.435 88.5961C264.935 88.404 265.512 88.3911 266 88.6134C266.573 88.8727 266.972 89.425 267.187 90.0168C267.556 91.0317 267.772 92.1104 267.82 93.183C267.959 96.2648 268.074 99.3483 268.224 102.43C268.377 105.57 268.279 108.802 268.643 111.925C268.543 111.06 268.711 110.115 268.792 109.255C268.962 107.45 269.174 105.648 269.406 103.849C269.639 102.045 269.69 99.8739 271.122 98.5531C271.728 97.9948 272.653 97.6735 273.383 98.0534C273.719 98.2283 273.975 98.5316 274.157 98.8633C274.759 99.9617 274.631 101.302 274.578 102.508C274.527 103.684 274.478 104.86 274.429 106.036C274.328 108.414 274.225 110.793 274.091 113.17C274.031 114.531 273.972 115.891 273.913 117.251L275.466 112.305C276.032 110.397 277.988 107.355 279.785 108.211C280.818 108.704 281.336 109.877 281.004 110.972L274.252 140.953L270.32 154.194L250.255 143.03Z" fill="#E69773"/>
<path d="M256.571 124.539C256.478 124.57 256.38 124.582 256.275 124.576C256.074 124.562 255.891 124.47 255.758 124.317C255.626 124.164 255.562 123.969 255.576 123.768C256.21 114.85 249.735 111.605 249.458 111.47C249.277 111.382 249.14 111.228 249.076 111.038C249.009 110.847 249.022 110.642 249.109 110.462C249.196 110.279 249.349 110.142 249.54 110.076C249.732 110.009 249.936 110.022 250.113 110.108C250.191 110.145 257.785 113.998 257.083 123.876C257.069 124.089 256.966 124.28 256.807 124.409C256.738 124.465 256.658 124.509 256.571 124.539Z" fill="#AF4E4A"/>
<path d="M96.0705 86.957C103.326 86.957 109.207 81.0754 109.207 73.8201C109.207 66.5647 103.326 60.6831 96.0705 60.6831C88.8152 60.6831 82.9335 66.5647 82.9335 73.8201C82.9335 81.0754 88.8152 86.957 96.0705 86.957Z" fill="#6059C9"/>
<path d="M88.7062 72.2925C95.9616 72.2925 101.843 66.4109 101.843 59.1555C101.843 51.9002 95.9616 46.0186 88.7062 46.0186C81.4509 46.0186 75.5693 51.9002 75.5693 59.1555C75.5693 66.4109 81.4509 72.2925 88.7062 72.2925Z" fill="#6059C9"/>
<path d="M88.1096 52.5757C95.3649 52.5757 101.247 46.6941 101.247 39.4387C101.247 32.1834 95.3649 26.3018 88.1096 26.3018C80.8542 26.3018 74.9726 32.1834 74.9726 39.4387C74.9726 46.6941 80.8542 52.5757 88.1096 52.5757Z" fill="#6059C9"/>
<path d="M97.8 38.2886C105.055 38.2886 110.937 32.407 110.937 25.1516C110.937 17.8963 105.055 12.0146 97.8 12.0146C90.5446 12.0146 84.663 17.8963 84.663 25.1516C84.663 32.407 90.5446 38.2886 97.8 38.2886Z" fill="#6059C9"/>
<path d="M115.342 30.5557C122.597 30.5557 128.479 24.674 128.479 17.4187C128.479 10.1634 122.597 4.28174 115.342 4.28174C108.087 4.28174 102.205 10.1634 102.205 17.4187C102.205 24.674 108.087 30.5557 115.342 30.5557Z" fill="#6059C9"/>
<path d="M137.162 29.0227C143.9 26.331 147.179 18.6872 144.488 11.9499C141.796 5.21258 134.152 1.93299 127.415 4.62473C120.677 7.31646 117.398 14.9602 120.09 21.6975C122.781 28.4348 130.425 31.7144 137.162 29.0227Z" fill="#6059C9"/>
<path d="M149.507 37.394C156.762 37.394 162.644 31.5124 162.644 24.2571C162.644 17.0017 156.762 11.1201 149.507 11.1201C142.252 11.1201 136.37 17.0017 136.37 24.2571C136.37 31.5124 142.252 37.394 149.507 37.394Z" fill="#6059C9"/>
<path d="M158.567 49.1704C165.822 49.1704 171.704 43.2888 171.704 36.0334C171.704 28.7781 165.822 22.8965 158.567 22.8965C151.311 22.8965 145.43 28.7781 145.43 36.0334C145.43 43.2888 151.311 49.1704 158.567 49.1704Z" fill="#6059C9"/>
<path d="M198.373 169.494L161.371 134.747C155.239 127.207 146.006 122.299 135.6 121.993L78.7087 120.322C78.1315 120.322 77.5629 120.359 76.9968 120.403L76.9339 120.316L66.2731 120.52C50.5911 120.818 36.1359 130.049 30.2145 144.574C29.4287 146.502 28.7886 148.508 28.3096 150.584L18.4431 195.154C17.7504 198.284 20.0723 201.272 23.2764 201.375L51.9411 202.292L45.4915 284.886H173.961L171.022 206.626L198.608 177.501C200.761 175.228 200.656 171.637 198.373 169.494Z" fill="#D03F23"/>
<path d="M146.358 49.6251C142.283 49.1736 138.531 42.1873 138.531 42.1873C138.531 42.1873 113.228 41.1328 112.32 37.6538L110.024 58.3845L103.872 57.703L98.4701 57.1051C97.6119 57.0103 96.7685 57.0362 95.9474 57.1482C91.3554 57.7745 87.568 61.4551 87.0355 66.2582L86.9244 67.2628C86.2972 72.9241 90.4163 78.0701 96.0775 78.6965L98.825 79.0006L92.2677 113.061C90.3508 123.02 96.8693 132.647 106.828 134.564L108.587 134.902C118.546 136.819 128.173 130.301 130.09 120.342L132.56 107.513C141.658 108.368 149.795 101.782 150.805 92.6648L155.26 52.4432C155.364 51.5128 155.368 48.6248 155.321 47.7193C153.95 48.1579 152.47 50.3014 150.946 50.1325L146.358 49.6251Z" fill="#E69773"/>
<path d="M95.6487 71.7357C95.3972 71.7081 95.1645 71.5573 95.0413 71.3144C94.8483 70.9327 95.0017 70.4666 95.3842 70.2736L98.3635 68.7693L95.5807 64.8846C95.3317 64.5374 95.4118 64.0532 95.7599 63.8042C96.1045 63.5552 96.5895 63.6345 96.8403 63.9834L100.149 68.603C100.281 68.7866 100.325 69.0192 100.272 69.2389C100.218 69.4586 100.071 69.6438 99.8686 69.7463L96.0812 71.6581C95.9434 71.727 95.7926 71.7512 95.6487 71.7357Z" fill="#AF4E4A"/>
<path d="M135.764 77.8163L132.88 77.4967C132.454 77.4493 132.149 77.0668 132.195 76.6412C132.242 76.2156 132.625 75.9097 133.051 75.9562L135.935 76.2759C136.746 76.3655 137.55 76.0941 138.141 75.5298C138.731 74.9663 139.039 74.1763 138.987 73.3621L138.326 63.0372C138.298 62.6108 138.623 62.2429 139.05 62.2153C139.476 62.1895 139.845 62.5126 139.872 62.9399L140.533 73.263C140.615 74.5347 140.133 75.7701 139.21 76.6498C138.288 77.5312 137.032 77.9559 135.764 77.8163Z" fill="#AF4E4A"/>
<path d="M148.082 69.9408C148.162 71.1039 147.285 72.1111 146.123 72.1912C144.96 72.2713 143.952 71.3943 143.872 70.232C143.792 69.0698 144.669 68.0618 145.831 67.9816C146.994 67.9015 148.002 68.7786 148.082 69.9408Z" fill="#111111"/>
<path d="M131.87 96.3028C131.774 96.3175 131.672 96.2994 131.581 96.2459C131.489 96.1917 129.291 94.9217 127.377 96.5466C127.193 96.7034 126.916 96.6802 126.758 96.4958C126.601 96.3106 126.623 96.034 126.808 95.8763C129.21 93.8405 132.003 95.4757 132.031 95.4921C132.238 95.617 132.305 95.885 132.181 96.0926C132.113 96.2106 131.996 96.2839 131.87 96.3028Z" fill="#AF4E4A"/>
<path d="M118.062 59.2756C119.12 59.6753 120.458 59.4849 121.759 59.3738C123.07 59.2351 124.388 59.1282 125.537 59.0757C126.689 59.0223 128.013 59.0059 129.331 59.024C130.639 59.0136 131.996 59.0791 132.997 58.5846C133.965 58.1211 134.312 56.9063 133.074 55.4882C131.909 54.1062 128.964 52.6812 125.153 52.8484C121.348 53.0336 118.593 54.7222 117.604 56.2033C116.55 57.7282 117.042 58.9042 118.062 59.2756Z" fill="#2B2B39"/>
<path d="M153.753 63.357C152.968 63.4957 152.105 63.139 151.251 62.8486C150.398 62.5359 149.533 62.2456 148.77 62.0241C148.008 61.8019 147.121 61.5804 146.233 61.3866C145.357 61.1721 144.434 61.0092 143.853 60.4716C143.289 59.965 143.282 58.9811 144.377 58.092C145.416 57.2193 147.659 56.5946 150.186 57.3235C152.707 58.0653 154.243 59.7919 154.631 61.0807C155.056 62.4118 154.506 63.2338 153.753 63.357Z" fill="#2B2B39"/>
<path d="M129.748 68.645C129.513 69.8977 128.307 70.7231 127.053 70.4887C125.8 70.2535 124.974 69.0474 125.21 67.7947C125.445 66.5411 126.652 65.7166 127.904 65.9509C129.158 66.1861 129.983 67.3923 129.748 68.645Z" fill="#111111"/>
<path d="M124.846 70.364C124.846 70.364 127.057 69.1182 128.851 71.0946L124.846 70.364Z" fill="#E69773"/>
<path d="M128.765 71.8628C128.584 71.843 128.409 71.7594 128.277 71.6138C126.957 70.1595 125.394 70.9452 125.221 71.0409C124.847 71.2433 124.376 71.1098 124.17 70.7367C123.964 70.3645 124.094 69.8976 124.464 69.6891C125.417 69.1532 127.675 68.6483 129.424 70.5722C129.711 70.8892 129.687 71.3795 129.371 71.6672C129.2 71.8223 128.977 71.8869 128.765 71.8628Z" fill="#AF4E4A"/>
<path d="M144.076 72.3439C144.076 72.3439 146.024 71.7184 147.639 72.7755L144.076 72.3439Z" fill="#E69773"/>
<path d="M147.554 73.5452C147.436 73.5323 147.32 73.4927 147.215 73.4238C145.939 72.5872 144.325 73.0757 144.308 73.0826C143.901 73.2101 143.468 72.9818 143.338 72.576C143.21 72.1702 143.432 71.736 143.839 71.6059C143.933 71.5757 146.159 70.883 148.064 72.128C148.421 72.3615 148.522 72.8413 148.288 73.1998C148.123 73.4522 147.835 73.5763 147.554 73.5452Z" fill="#AF4E4A"/>
<path d="M122.203 77.2035C122.969 76.8081 123.904 77.0304 124.472 77.6782C125.507 78.8603 127.805 81.0081 131.354 81.7715C132.225 81.9584 132.566 83.0345 132.1 83.7935C131.073 85.4624 128.545 87.9316 124.148 85.2427C118.791 81.9671 120.206 78.2339 122.203 77.2035Z" fill="white"/>
<path d="M132.443 107.597C132.443 107.597 113.554 106.73 109.766 98.6201C109.766 98.6201 110.5 115.55 130.439 118.002L132.443 107.597Z" fill="#AF4E4A"/>
<path d="M112.803 73.0261C112.667 74.2512 114.214 75.4281 116.258 75.6547C118.302 75.8813 120.069 75.0714 120.205 73.8463C120.341 72.6212 118.794 71.4443 116.75 71.2177C114.706 70.9911 112.938 71.801 112.803 73.0261Z" fill="#AF4E4A"/>
<path d="M122.552 76.4805C116.222 76.4211 111.122 71.2233 111.182 64.8935C111.242 58.5645 116.439 53.465 122.77 53.5244C129.101 53.5847 134.2 58.7816 134.14 65.1106C134.08 71.4404 128.883 76.54 122.552 76.4805ZM122.754 55.2183C117.359 55.1666 112.927 59.5148 112.876 64.9081C112.825 70.3032 117.172 74.7342 122.568 74.7859C127.963 74.8367 132.394 70.4893 132.445 65.0942C132.497 59.7009 128.149 55.27 122.754 55.2183Z" fill="#FDFEFF"/>
<path d="M148.783 80.1079C142.454 80.0475 137.353 74.8507 137.414 68.52C137.474 62.1919 142.671 57.0915 149.001 57.1509C155.33 57.2104 160.431 62.409 160.371 68.7371C160.311 75.0678 155.113 80.1673 148.783 80.1079ZM148.984 58.8456C143.589 58.7948 139.158 63.1421 139.107 68.5363C139.057 73.9314 143.404 78.3623 148.799 78.4132C154.194 78.4649 158.625 74.1166 158.677 68.7216C158.728 63.3282 154.38 58.8973 148.984 58.8456Z" fill="#FDFEFF"/>
<path d="M137.611 68.2538C136.125 66.1878 133.964 67.4198 133.721 67.568L132.828 66.1283C134.1 65.3314 137.029 64.5413 138.987 67.2638L137.611 68.2538Z" fill="#FDFEFF"/>
<path d="M112.966 60.4359C112.618 60.4523 112.267 60.3394 112.025 60.1068C111.904 60.0163 109.979 58.6663 101.555 57.9245C100.908 57.8676 100.448 57.3843 100.529 56.8458C100.605 56.3047 101.211 55.9067 101.843 55.973C111.538 56.826 113.555 58.5172 113.86 58.8489C114.256 59.2754 114.153 59.8923 113.636 60.2274C113.432 60.3566 113.2 60.4247 112.966 60.4359Z" fill="#FDFEFF"/>
<path d="M146.854 51.4258C154.109 51.4258 159.991 45.5442 159.991 38.2888C159.991 31.0335 154.109 25.1519 146.854 25.1519C139.598 25.1519 133.717 31.0335 133.717 38.2888C133.717 45.5442 139.598 51.4258 146.854 51.4258Z" fill="#6059C9"/>
<path d="M129.018 43.6919C136.273 43.6919 142.155 37.8103 142.155 30.5549C142.155 23.2996 136.273 17.418 129.018 17.418C121.762 17.418 115.881 23.2996 115.881 30.5549C115.881 37.8103 121.762 43.6919 129.018 43.6919Z" fill="#6059C9"/>
<path d="M110.938 47.5918C118.193 47.5918 124.075 41.7102 124.075 34.4548C124.075 27.1995 118.193 21.3179 110.938 21.3179C103.682 21.3179 97.8007 27.1995 97.8007 34.4548C97.8007 41.7102 103.682 47.5918 110.938 47.5918Z" fill="#6059C9"/>
<path d="M102.836 62.7481C108.374 62.7481 112.864 58.2586 112.864 52.7205C112.864 47.1824 108.374 42.6929 102.836 42.6929C97.298 42.6929 92.8085 47.1824 92.8085 52.7205C92.8085 58.2586 97.298 62.7481 102.836 62.7481Z" fill="#6059C9"/>
<path d="M97.5412 54.3326C103.079 54.3326 107.569 49.8431 107.569 44.305C107.569 38.7669 103.079 34.2773 97.5412 34.2773C92.0031 34.2773 87.5136 38.7669 87.5136 44.305C87.5136 49.8431 92.0031 54.3326 97.5412 54.3326Z" fill="#6059C9"/>
<path d="M139.374 128.948L135.037 117.804C134.872 115.641 132.712 114.623 131.35 116.065L115.446 132.696C115.316 132.833 115.102 132.845 114.957 132.727L91.3795 113.45C90.536 112.752 89.1325 112.999 88.6811 113.924L82.0868 127.445C81.401 128.851 81.6086 130.53 82.6157 131.726L96.4669 148.179C97.7024 149.646 100.187 149.819 101.685 148.542L114.754 136.473C115.037 136.212 115.48 136.234 115.735 136.522L123.998 145.87C124.904 147.22 126.653 147.119 127.446 145.67L138.682 132.816C139.621 131.741 139.886 130.263 139.374 128.948Z" fill="#750021"/>
<path d="M148.329 65.0135C149.389 64.4794 152.177 63.1931 154.402 63.2551C154.961 63.2689 155.373 63.7229 155.322 64.2683C155.292 64.5983 155.101 64.8843 154.829 65.0566C154.652 65.1686 154.442 65.2332 154.221 65.2255C152.419 65.1772 149.71 66.4463 148.818 66.94C148.661 67.027 148.494 67.0571 148.329 67.0623V65.0135Z" fill="#FDFEFF"/>
<path d="M118.513 148.528C118.513 150.003 117.317 151.2 115.842 151.2C114.367 151.2 113.171 150.004 113.171 148.528C113.171 147.053 114.367 145.857 115.842 145.857C117.317 145.857 118.513 147.053 118.513 148.528Z" fill="#750021"/>
<path d="M118.513 160.934C118.513 162.409 117.317 163.605 115.842 163.605C114.367 163.605 113.171 162.409 113.171 160.934C113.171 159.459 114.367 158.264 115.842 158.264C117.317 158.264 118.513 159.459 118.513 160.934Z" fill="#750021"/>
<path d="M118.513 173.341C118.513 174.816 117.317 176.012 115.842 176.012C114.367 176.012 113.171 174.817 113.171 173.341C113.171 171.866 114.367 170.67 115.842 170.67C117.317 170.67 118.513 171.866 118.513 173.341Z" fill="#750021"/>
<path d="M138.195 254.198L71.2689 216.289L73.9096 202.604L25.4239 201.178L22.897 213.929C18.3196 245.904 59.3907 261.41 59.3907 261.41L124.906 283.422" fill="#E69773"/>
<path d="M71.4997 215.868C71.4515 215.868 71.4024 215.864 71.3524 215.854C70.9328 215.773 70.6572 215.367 70.739 214.947L73.2711 201.822L79.5846 201.873C79.5915 201.873 79.5975 201.873 79.6044 201.873C80.8106 201.873 81.7962 200.934 81.8522 199.727L83.521 164.172C83.5408 163.744 83.8992 163.405 84.3309 163.434C84.7582 163.455 85.0882 163.817 85.0683 164.244L83.3995 199.8C83.3039 201.848 81.6359 203.464 79.5716 203.422L74.5479 203.382L72.2588 215.239C72.1881 215.612 71.8633 215.868 71.4997 215.868Z" fill="#750021"/>
<path d="M54.7324 222.475C54.4085 222.475 54.1069 222.271 53.9984 221.946C53.8622 221.54 54.0811 221.102 54.4869 220.966L70.8245 215.489C71.2286 215.355 71.6697 215.571 71.805 215.977C71.9411 216.382 71.7222 216.821 71.3165 216.958L54.9788 222.435C54.8978 222.462 54.8143 222.475 54.7324 222.475Z" fill="#AF4E4A"/>
<path d="M122.363 281.224C123.523 282.871 124.801 284.233 126.17 284.936L147.898 296.78C151.784 299.162 157.303 297.194 155.723 294.091C158.169 296.651 161.769 298.581 164.586 295.267C166.356 293.618 165.802 291.834 164.595 290.2C166.89 292.485 169.569 294.272 172.116 291.7C175.283 289.308 173.87 286.365 171.792 283.947C173.542 285.33 175.593 286.067 177.498 284.152C182.479 278.212 173.936 273.352 169.189 269.821C166.829 268.316 164.689 266.912 162.697 265.586C165.357 264.851 168.044 264.098 170.263 262.485C170.977 261.965 171.684 261.257 171.698 260.373C171.71 259.694 171.291 259.065 170.747 258.658C170.204 258.25 169.547 258.029 168.899 257.826C162.855 255.941 144.436 253.831 144.436 253.831C142.37 253.789 140.271 253.924 138.194 254.197" fill="#E69773"/>
<path d="M160.994 286.391C161.307 286.674 161.645 287.024 162.005 287.412C161.628 287.045 161.279 286.702 160.994 286.391Z" fill="#E69773"/>
<path opacity="0.3" d="M162.697 265.589L150.906 259.119C150.906 259.119 165.433 262.676 167.456 264.039L162.697 265.589Z" fill="#AF4E4A"/>
<path d="M164.706 279.861C164.52 279.622 164.497 279.284 164.67 279.017C164.89 278.681 165.34 278.586 165.677 278.805C166.362 279.253 172.404 283.206 173.299 284.235C173.579 284.501 173.531 284.996 173.228 285.26C172.926 285.523 172.466 285.492 172.203 285.189C171.628 284.529 167.407 281.669 164.882 280.021C164.813 279.977 164.755 279.923 164.706 279.861Z" fill="#AF4E4A"/>
<path d="M158.481 287.015C158.293 286.774 158.272 286.428 158.453 286.16C158.678 285.828 159.129 285.741 159.462 285.966L165.502 290.059C165.836 290.286 165.921 290.737 165.696 291.068C165.471 291.4 165.02 291.487 164.687 291.262L158.648 287.169C158.582 287.125 158.527 287.073 158.481 287.015Z" fill="#AF4E4A"/>
<path d="M113.424 278.527C113.424 278.527 117.928 259.791 128.651 248.671C131.253 248.495 134.685 249.509 136.587 251.416C136.587 251.416 125.14 263.715 120.592 282.71C117.575 282.307 115.183 280.902 113.424 278.527Z" fill="#2B2B39"/>
<path d="M134.659 264.079C137.319 258.894 135.271 252.533 130.085 249.873C124.899 247.213 118.54 249.261 115.88 254.447C113.22 259.634 115.268 265.994 120.454 268.653C125.639 271.313 132 269.266 134.659 264.079Z" fill="#2B2B39"/>
<path d="M128.736 252.505C125.009 250.594 120.423 252.071 118.511 255.797C116.6 259.524 118.077 264.11 121.803 266.022C125.53 267.933 130.116 266.456 132.028 262.729C133.939 259.003 132.463 254.417 128.736 252.505Z" fill="white"/>
</g>
<path d="M215.346 87.1659C212.973 89.4499 211.03 88.6219 211.03 85.3291V74.7104C211.03 71.4176 208.336 68.7226 205.043 68.7226H191.456C188.163 68.7226 185.469 66.0286 185.469 62.7348V20.7651C185.469 17.4723 188.163 14.7773 191.456 14.7773H255.172C258.465 14.7773 261.159 17.4714 261.159 20.7651V62.7357C261.159 66.0286 258.465 68.7235 255.172 68.7235H240.507C237.214 68.7235 232.578 70.5896 230.205 72.8736L215.346 87.1659Z" fill="#467B6C"/>
<path d="M248.146 31.7732H198.483C197.29 31.7732 196.322 30.8057 196.322 29.6124C196.322 28.4192 197.29 27.4517 198.483 27.4517H248.146C249.339 27.4517 250.306 28.4192 250.306 29.6124C250.306 30.8057 249.34 31.7732 248.146 31.7732Z" fill="white"/>
<path d="M248.146 42.5506H198.483C197.29 42.5506 196.322 41.583 196.322 40.3898C196.322 39.1965 197.29 38.229 198.483 38.229H248.146C249.339 38.229 250.306 39.1965 250.306 40.3898C250.306 41.583 249.34 42.5506 248.146 42.5506Z" fill="white"/>
<path d="M248.145 53.3279H208.683C207.49 53.3279 206.522 52.3604 206.522 51.1671C206.522 49.9739 207.49 49.0063 208.683 49.0063H248.145C249.338 49.0063 250.306 49.9739 250.306 51.1671C250.306 52.3604 249.339 53.3279 248.145 53.3279Z" fill="white"/>
<path d="M251.487 200.79H161.49C158.271 200.79 155.449 202.939 154.593 206.042L133.861 281.197H131.301H73.5631C72.4664 281.197 71.8116 282.419 72.4207 283.332L77.1817 290.474H131.301H234.128L258.385 210.079C259.783 205.451 256.319 200.79 251.487 200.79Z" fill="#5F5F75"/>
<path d="M241.86 290.658H139.033L162.325 206.226C163.182 203.123 166.003 200.974 169.222 200.974H259.219C264.051 200.974 267.515 205.636 266.118 210.263L241.86 290.658Z" fill="#2B2B39"/>
<path d="M197.146 249.005C197.146 242.638 202.327 237.457 208.694 237.457C215.061 237.457 220.24 242.637 220.24 249.005C220.24 255.372 215.062 260.551 208.694 260.551C202.328 260.552 197.146 255.373 197.146 249.005ZM198.907 249.005C198.907 254.402 203.297 258.791 208.695 258.791C214.091 258.791 218.48 254.402 218.48 249.005C218.48 243.608 214.091 239.218 208.695 239.218C203.297 239.218 198.907 243.609 198.907 249.005Z" fill="#F6EEE3"/>
<path d="M440.729 73.6514C440.574 73.6514 440.418 73.6221 440.266 73.5609L434.658 71.2812C434.356 71.158 434.115 70.9203 433.989 70.6196C433.862 70.3189 433.859 69.9803 433.983 69.6788L435.746 65.3434C434.754 64.6628 433.854 63.8702 433.059 62.9733L428.807 64.7653C428.183 65.0281 427.461 64.736 427.197 64.1097L424.845 58.5328C424.718 58.2322 424.716 57.8936 424.839 57.592C424.962 57.2896 425.2 57.0492 425.501 56.9226L429.467 55.2503C429.317 54.2078 429.281 53.1499 429.359 52.0893L425.46 50.504C425.158 50.3808 424.916 50.143 424.79 49.8424C424.663 49.5417 424.661 49.2031 424.784 48.9015L427.064 43.2945C427.187 42.9921 427.425 42.7518 427.726 42.6251C428.026 42.4985 428.364 42.4959 428.667 42.6191L432.357 44.1208C433.149 43.0792 434.073 42.1539 435.116 41.3552L433.444 37.3912C433.18 36.7648 433.473 36.0446 434.099 35.7801L439.677 33.4272C439.977 33.3005 440.315 33.2979 440.617 33.4211C440.919 33.5444 441.16 33.7821 441.287 34.082L443.079 38.3337C443.781 38.2829 444.487 38.282 445.19 38.3329L447.045 33.7727C447.3 33.1437 448.017 32.8413 448.647 33.0963L454.254 35.376C454.556 35.4992 454.797 35.737 454.924 36.0377C455.051 36.3384 455.054 36.677 454.93 36.9785L453.16 41.3302C454.201 42.1237 455.127 43.0473 455.925 44.0906L459.89 42.4183C460.191 42.2917 460.529 42.2891 460.831 42.4123C461.134 42.5355 461.374 42.7733 461.501 43.0731L463.853 48.6508C464.117 49.2763 463.824 49.9974 463.198 50.2619L458.948 52.054C459.019 53.0146 458.998 53.9701 458.885 54.9109L463.237 56.6805C463.866 56.9364 464.17 57.6532 463.914 58.2821L461.634 63.8891C461.512 64.1915 461.273 64.4319 460.973 64.5585C460.672 64.6852 460.333 64.6869 460.032 64.5646L455.471 62.7088C455.017 63.2481 454.524 63.753 453.997 64.2208L455.79 68.4709C456.054 69.0963 455.761 69.8175 455.135 70.082L449.559 72.4349C449.257 72.5615 448.919 72.5632 448.617 72.4409C448.315 72.3177 448.074 72.0799 447.947 71.7801L446.275 67.8135C445.477 67.9289 444.673 67.9781 443.868 67.9617L441.867 72.8829C441.674 73.3619 441.214 73.6505 440.729 73.6514ZM436.724 69.4651L440.053 70.8186L441.92 66.2274C442.123 65.7294 442.617 65.4201 443.161 65.4658C444.369 65.5657 445.582 65.4864 446.766 65.2297C447.348 65.1039 447.93 65.4089 448.16 65.9534L449.736 69.6925L453.048 68.296L451.379 64.3388C451.163 63.8262 451.318 63.2326 451.756 62.8906C452.639 62.2031 453.425 61.3958 454.093 60.4929C454.426 60.0406 455.024 59.8726 455.546 60.0845L459.821 61.824L461.175 58.4949L457.06 56.8218C456.516 56.6004 456.205 56.0266 456.316 55.4502C456.566 54.1475 456.6 52.7983 456.414 51.4414C456.339 50.89 456.642 50.3576 457.154 50.1413L461.111 48.4725L459.714 45.1607L455.975 46.7373C455.431 46.9674 454.799 46.7761 454.473 46.2833C453.547 44.885 452.372 43.7115 450.979 42.7948C450.489 42.4718 450.295 41.848 450.517 41.3044L452.191 37.1896L448.862 35.8361L447.123 40.112C446.911 40.6332 446.368 40.9425 445.816 40.8667C444.706 40.7133 443.58 40.7133 442.469 40.8667C441.918 40.9399 441.384 40.6392 441.169 40.1266L439.501 36.1686L436.189 37.5652L437.766 41.3035C437.996 41.848 437.804 42.4795 437.312 42.806C435.913 43.7331 434.739 44.9082 433.823 46.2996C433.5 46.7899 432.875 46.9829 432.333 46.7623L428.88 45.3571L427.525 48.6862L431.14 50.1568C431.661 50.3688 431.972 50.9064 431.895 51.4629C431.697 52.9043 431.75 54.3422 432.052 55.7397C432.177 56.3178 431.873 56.9028 431.327 57.132L427.588 58.7086L428.985 62.0195L432.944 60.3507C433.454 60.1345 434.05 60.2895 434.391 60.7281C435.352 61.9627 436.531 62.994 437.893 63.7918C438.42 64.1002 438.641 64.7498 438.411 65.3158L436.724 69.4651ZM444.163 59.9044C441.518 59.9044 438.999 58.3476 437.909 55.7612C436.457 52.3185 438.077 48.3355 441.519 46.8829C444.963 45.4303 448.946 47.0501 450.399 50.4946C451.101 52.1608 451.112 54.0028 450.43 55.6802C449.747 57.3585 448.453 58.6698 446.787 59.3729C445.931 59.7338 445.04 59.9044 444.163 59.9044ZM444.149 48.8094C443.59 48.8094 443.023 48.9188 442.477 49.1488C440.282 50.075 439.25 52.6122 440.175 54.8058C441.101 56.9993 443.639 58.0314 445.832 57.1061C446.893 56.659 447.717 55.8241 448.153 54.7532C448.588 53.6832 448.581 52.5097 448.134 51.4492C447.438 49.8019 445.833 48.8094 444.149 48.8094Z" fill="#CCC0B2"/>
<path d="M236.873 367.209C227.198 367.209 219.327 359.338 219.327 349.663C219.327 339.989 227.198 332.118 236.873 332.118C246.547 332.118 254.418 339.988 254.418 349.663C254.418 359.338 246.547 367.209 236.873 367.209ZM236.873 334.577C228.554 334.577 221.786 341.345 221.786 349.663C221.786 357.981 228.554 364.75 236.873 364.75C245.191 364.75 251.959 357.982 251.959 349.663C251.959 341.345 245.191 334.577 236.873 334.577Z" fill="#CCC0B2"/>
<path d="M232.09 357.9C232.067 357.9 232.045 357.899 232.023 357.898C231.674 357.879 231.35 357.712 231.131 357.439L227.948 353.473C227.524 352.943 227.608 352.169 228.138 351.745C228.668 351.32 229.441 351.405 229.866 351.934L232.191 354.832L245.234 341.788C245.714 341.308 246.492 341.308 246.972 341.788C247.452 342.268 247.452 343.046 246.972 343.526L232.959 357.539C232.728 357.77 232.415 357.9 232.09 357.9Z" fill="#CCC0B2"/>
<path d="M64.0821 393.553L51.5517 385.84H21.5697C18.755 385.84 16.4658 383.55 16.4658 380.735V358.985C16.4658 356.171 18.7558 353.881 21.5697 353.881H57.1613C59.976 353.881 62.2651 356.171 62.2651 358.985V381.057L65.8948 392.122C66.056 392.612 65.8931 393.151 65.4882 393.471C65.2659 393.645 64.9962 393.735 64.7266 393.735C64.5043 393.735 64.2803 393.675 64.0821 393.553ZM21.5697 356.34C20.1111 356.34 18.9247 357.527 18.9247 358.985V380.735C18.9247 382.194 20.1111 383.38 21.5697 383.38H51.8998C52.1272 383.38 52.3504 383.443 52.5442 383.563L62.5115 389.698L59.8674 381.636C59.8269 381.513 59.8063 381.383 59.8063 381.253V358.984C59.8063 357.526 58.6199 356.339 57.1613 356.339H21.5697V356.34Z" fill="#CCC0B2"/>
<path d="M46.3545 370.139C46.3545 371.757 47.6666 373.069 49.2855 373.069C50.9044 373.069 52.2156 371.757 52.2156 370.139C52.2156 368.52 50.9035 367.209 49.2855 367.209C47.6666 367.209 46.3545 368.52 46.3545 370.139Z" fill="#CCC0B2"/>
<path d="M35.7598 370.139C35.7598 371.757 37.0719 373.069 38.6899 373.069C40.3079 373.069 41.62 371.757 41.62 370.139C41.62 368.52 40.3079 367.209 38.6899 367.209C37.0711 367.209 35.7598 368.52 35.7598 370.139Z" fill="#CCC0B2"/>
<path d="M25.165 370.139C25.165 371.757 26.4772 373.069 28.0952 373.069C29.7132 373.069 31.0253 371.757 31.0253 370.139C31.0253 368.52 29.7132 367.209 28.0952 367.209C26.4772 367.209 25.165 368.52 25.165 370.139Z" fill="#CCC0B2"/>
</svg>
