<svg width="48" height="48" viewBox="0 0 48 48" fill="none" xmlns="http://www.w3.org/2000/svg">
<rect width="47.97" height="47.97" rx="12" fill="#FB9851" fill-opacity="0.2"/>
<path d="M30.9741 28.976H32.9724C33.5719 28.976 33.9716 28.5764 33.9716 27.9769V24.9794C33.9716 24.0801 33.2722 23.2808 32.4729 23.081C30.6744 22.5814 27.9766 21.9819 27.9766 21.9819C27.9766 21.9819 26.6777 20.583 25.7784 19.6838C25.2789 19.2841 24.6794 18.9844 23.9799 18.9844H16.9858C16.3863 18.9844 15.8867 19.384 15.5869 19.8836L14.1881 22.7812C14.0558 23.1671 13.9883 23.5723 13.9883 23.9802V27.9769C13.9883 28.5764 14.3879 28.976 14.9874 28.976H16.9858" stroke="#1A051D" stroke-width="1.99833" stroke-linecap="round" stroke-linejoin="round"/>
<path d="M18.985 30.9759C20.0889 30.9759 20.9837 30.0811 20.9837 28.9772C20.9837 27.8734 20.0889 26.9785 18.985 26.9785C17.8812 26.9785 16.9863 27.8734 16.9863 28.9772C16.9863 30.0811 17.8812 30.9759 18.985 30.9759Z" stroke="#1A051D" stroke-width="1.99833" stroke-linecap="round" stroke-linejoin="round"/>
<path d="M20.9824 28.9766H26.9774" stroke="#1A051D" stroke-width="1.99833" stroke-linecap="round" stroke-linejoin="round"/>
<path d="M28.9762 30.9759C30.0801 30.9759 30.9749 30.0811 30.9749 28.9772C30.9749 27.8734 30.0801 26.9785 28.9762 26.9785C27.8724 26.9785 26.9775 27.8734 26.9775 28.9772C26.9775 30.0811 27.8724 30.9759 28.9762 30.9759Z" stroke="#1A051D" stroke-width="1.99833" stroke-linecap="round" stroke-linejoin="round"/>
</svg>
