<svg width="48" height="48" viewBox="0 0 48 48" fill="none" xmlns="http://www.w3.org/2000/svg">
<rect width="47.97" height="47.97" rx="12" fill="#DBDE12" fill-opacity="0.2"/>
<path d="M27.9766 32.9735V30.9752C27.9766 29.9152 27.5555 28.8986 26.806 28.1491C26.0565 27.3996 25.0399 26.9785 23.9799 26.9785H17.9849C16.925 26.9785 15.9084 27.3996 15.1589 28.1491C14.4094 28.8986 13.9883 29.9152 13.9883 30.9752V32.9735" stroke="#1A051D" stroke-width="1.99833" stroke-linecap="round" stroke-linejoin="round"/>
<path d="M20.983 22.9816C23.1903 22.9816 24.9797 21.1922 24.9797 18.9849C24.9797 16.7776 23.1903 14.9883 20.983 14.9883C18.7757 14.9883 16.9863 16.7776 16.9863 18.9849C16.9863 21.1922 18.7757 22.9816 20.983 22.9816Z" stroke="#1A051D" stroke-width="1.99833" stroke-linecap="round" stroke-linejoin="round"/>
<path d="M33.9721 32.9725V30.9742C33.9714 30.0887 33.6767 29.2284 33.1342 28.5286C32.5916 27.8287 31.832 27.3288 30.9746 27.1074" stroke="#1A051D" stroke-width="1.99833" stroke-linecap="round" stroke-linejoin="round"/>
<path d="M27.9766 15.1172C28.8363 15.3373 29.5982 15.8373 30.1424 16.5383C30.6865 17.2393 30.9819 18.1015 30.9819 18.989C30.9819 19.8764 30.6865 20.7386 30.1424 21.4396C29.5982 22.1406 28.8363 22.6406 27.9766 22.8607" stroke="#1A051D" stroke-width="1.99833" stroke-linecap="round" stroke-linejoin="round"/>
</svg>
