<svg width="35" height="35" viewBox="0 0 35 35" fill="none" xmlns="http://www.w3.org/2000/svg">
<rect width="35" height="35" rx="17.5" fill="#1F8225" fill-opacity="0.2"/>
<path d="M9.6665 18.0007C9.6665 14.8582 9.6665 13.2865 10.6432 12.3107C11.6198 11.3348 13.1907 11.334 16.3332 11.334H19.6665C22.809 11.334 24.3807 11.334 25.3565 12.3107C26.3323 13.2873 26.3332 14.8582 26.3332 18.0007C26.3332 21.1432 26.3332 22.7148 25.3565 23.6907C24.3798 24.6665 22.809 24.6673 19.6665 24.6673H16.3332C13.1907 24.6673 11.619 24.6673 10.6432 23.6907C9.66734 22.714 9.6665 21.1432 9.6665 18.0007Z" stroke="#1F8225" stroke-width="1.5"/>
<path d="M16.3332 21.334H12.9998M19.6665 21.334H18.4165M9.6665 16.334H26.3332" stroke="#1F8225" stroke-width="1.5" stroke-linecap="round"/>
</svg>
