<svg width="139" height="139" viewBox="0 0 139 139" fill="none" xmlns="http://www.w3.org/2000/svg">
<path d="M90.3333 111.168C84.5694 111.168 79.6569 109.136 75.5958 105.072C71.5347 101.008 69.5028 96.0957 69.5 90.3346C69.4972 84.5735 71.5292 79.661 75.5958 75.5971C79.6625 71.5332 84.575 69.5013 90.3333 69.5013C96.0917 69.5013 101.006 71.5332 105.075 75.5971C109.144 79.661 111.175 84.5735 111.167 90.3346C111.158 96.0957 109.126 101.01 105.071 105.076C101.015 109.143 96.1028 111.174 90.3333 111.168ZM92.4167 89.5013V79.918C92.4167 79.3624 92.2083 78.8763 91.7917 78.4596C91.375 78.043 90.8889 77.8346 90.3333 77.8346C89.7778 77.8346 89.2917 78.043 88.875 78.4596C88.4583 78.8763 88.25 79.3624 88.25 79.918V89.3971C88.25 89.9527 88.3542 90.4916 88.5625 91.0138C88.7708 91.536 89.0833 92.0041 89.5 92.418L95.8542 98.7721C96.2708 99.1888 96.7569 99.3971 97.3125 99.3971C97.868 99.3971 98.3542 99.1888 98.7708 98.7721C99.1875 98.3555 99.3958 97.8694 99.3958 97.3138C99.3958 96.7582 99.1875 96.2721 98.7708 95.8555L92.4167 89.5013ZM40.3333 107.001C38.0417 107.001 36.0806 106.186 34.45 104.555C32.8194 102.925 32.0028 100.962 32 98.668V40.3346C32 38.043 32.8167 36.0819 34.45 34.4513C36.0833 32.8207 38.0444 32.0041 40.3333 32.0013H57.7292C58.4931 29.5707 59.9861 27.5749 62.2083 26.0138C64.4306 24.4527 66.8611 23.6707 69.5 23.668C72.2778 23.668 74.7611 24.4499 76.95 26.0138C79.1389 27.5777 80.6139 29.5735 81.375 32.0013H98.6667C100.958 32.0013 102.921 32.818 104.554 34.4513C106.188 36.0846 107.003 38.0457 107 40.3346V57.0013C107 58.1819 106.6 59.1721 105.8 59.9721C105 60.7721 104.011 61.1707 102.833 61.168C101.656 61.1652 100.667 60.7652 99.8667 59.968C99.0667 59.1707 98.6667 58.1819 98.6667 57.0013V40.3346H90.3333V48.668C90.3333 49.8485 89.9333 50.8388 89.1333 51.6388C88.3333 52.4388 87.3444 52.8374 86.1667 52.8346H52.8333C51.6528 52.8346 50.6639 52.4346 49.8667 51.6346C49.0694 50.8346 48.6694 49.8457 48.6667 48.668V40.3346H40.3333V98.668H59.0833C60.2639 98.668 61.2542 99.068 62.0542 99.868C62.8542 100.668 63.2528 101.657 63.25 102.835C63.2472 104.012 62.8472 105.003 62.05 105.805C61.2528 106.608 60.2639 107.007 59.0833 107.001H40.3333ZM69.5 40.3346C70.6806 40.3346 71.6708 39.9346 72.4708 39.1346C73.2708 38.3346 73.6694 37.3457 73.6667 36.168C73.6639 34.9902 73.2639 34.0013 72.4667 33.2013C71.6694 32.4013 70.6806 32.0013 69.5 32.0013C68.3194 32.0013 67.3306 32.4013 66.5333 33.2013C65.7361 34.0013 65.3361 34.9902 65.3333 36.168C65.3306 37.3457 65.7306 38.336 66.5333 39.1388C67.3361 39.9416 68.325 40.3402 69.5 40.3346Z" fill="#FFD35C" fill-opacity="0.8"/>
</svg>
