<svg width="248" height="248" viewBox="0 0 248 248" fill="none" xmlns="http://www.w3.org/2000/svg">
<g opacity="0.4">
<path d="M234.425 134.397C231.333 124.51 223.343 117.097 216.113 109.677C208.884 102.258 201.767 93.5271 201.264 83.18C200.541 68.304 213.729 55.2185 212.374 40.3866C211.196 27.4862 198.614 17.7884 185.745 16.3068C172.876 14.8253 160.107 19.8741 148.931 26.4237C137.755 32.9734 127.506 41.1143 115.867 46.8009C99.0882 54.9988 80.2664 57.7109 61.9774 61.487C48.5214 64.2651 34.559 68.0059 24.5547 77.424C16.8841 84.6462 12.1622 95.0741 12.4097 105.608C12.6572 116.141 18.07 126.558 26.8864 132.327C40.5512 141.268 58.5987 138.012 74.304 133.539C90.0094 129.066 106.903 123.707 122.232 129.335C137.586 134.972 147.126 150.139 160.508 159.543C175.144 169.828 195.633 171.865 213.185 170.652C229.686 169.511 239.038 149.148 234.425 134.397Z" fill="#969696"/>
<path d="M39.8744 145.889C34.6228 143.771 29.3716 141.653 24.12 139.536C22.3889 138.838 20.5448 138.126 18.7056 138.443C15.2932 139.031 13.388 143.104 14.0105 146.511C14.6325 149.917 17.0584 152.691 19.5697 155.076C22.8482 158.188 26.5023 161 30.6979 162.682C34.8936 164.364 39.6944 164.837 43.9461 163.302C47.124 162.154 52.8919 157.972 52.018 153.952C51.1545 149.977 43.0578 147.173 39.8744 145.889Z" fill="#969696"/>
</g>
<path d="M221.863 117.516H153.672V209.812H221.863V117.516Z" stroke="#121D30" stroke-width="0.75" stroke-miterlimit="10"/>
<path d="M218.586 121.953H156.95V205.375H218.586V121.953Z" stroke="#121D30" stroke-width="0.75" stroke-miterlimit="10"/>
<path d="M195.484 168.791H180.049V173.866H195.484V168.791Z" stroke="#121D30" stroke-width="0.75" stroke-miterlimit="10"/>
<path d="M197.424 176.404H178.111V178.492H197.424V176.404Z" stroke="#121D30" stroke-width="0.75" stroke-miterlimit="10"/>
<path d="M163.991 203.785H158.758H161.416" stroke="#121D30" stroke-width="0.75" stroke-miterlimit="10"/>
<path d="M158.758 202.041H160.667" stroke="#121D30" stroke-width="0.75" stroke-miterlimit="10"/>
<path d="M186.008 169.611H189.9" stroke="#121D30" stroke-width="0.75" stroke-miterlimit="10"/>
<path d="M183.593 171.039H192.315" stroke="#121D30" stroke-width="0.75" stroke-miterlimit="10"/>
<path d="M186.242 172.703H189.667" stroke="#121D30" stroke-width="0.75" stroke-miterlimit="10"/>
<path d="M218.586 164.398H156.95" stroke="#121D30" stroke-width="0.75" stroke-miterlimit="10"/>
<path d="M195.484 125.656H180.049V130.731H195.484V125.656Z" stroke="#121D30" stroke-width="0.75" stroke-miterlimit="10"/>
<path d="M197.424 133.268H178.111V135.356H197.424V133.268Z" stroke="#121D30" stroke-width="0.75" stroke-miterlimit="10"/>
<path d="M209.029 162.713H216.807" stroke="#121D30" stroke-width="0.75" stroke-miterlimit="10"/>
<path d="M215.345 161.443H216.807" stroke="#121D30" stroke-width="0.75" stroke-miterlimit="10"/>
<path d="M183.502 126.607H192.386" stroke="#121D30" stroke-width="0.75" stroke-miterlimit="10"/>
<path d="M181.748 128.088H194.14" stroke="#121D30" stroke-width="0.75" stroke-miterlimit="10"/>
<path d="M156.538 123.066H159.617" stroke="#121D30" stroke-width="0.75" stroke-miterlimit="10"/>
<path d="M156.538 125.127H166.058" stroke="#121D30" stroke-width="0.75" stroke-miterlimit="10"/>
<path d="M43.8032 114.506C54.4181 116.822 65.033 119.138 75.6484 121.453C70.7965 106.993 88.8732 97.5363 84.0213 83.0764C73.4064 80.7606 62.7915 78.4447 52.1766 76.1289C57.028 90.5888 38.9513 100.046 43.8032 114.506Z" fill="white"/>
<path d="M65.3041 105.195L59.5694 104.11L59.678 103.537C59.8625 102.561 60.1234 101.79 60.4597 101.223C60.796 100.656 61.231 100.163 61.7637 99.7421C62.2964 99.322 63.4476 98.6226 65.2168 97.6445C66.1573 97.1346 66.68 96.6034 66.7847 96.0499C66.8893 95.4968 66.807 95.0356 66.5382 94.6665C66.2694 94.298 65.8026 94.0505 65.139 93.925C64.4247 93.7896 63.7889 93.9146 63.2314 94.2985C62.6738 94.6829 62.2185 95.4512 61.8649 96.6034L56.1465 94.7707C56.7551 92.6558 57.8651 91.071 59.4771 90.016C61.0886 88.9611 63.3033 88.7002 66.1201 89.2334C68.3134 89.6485 69.9973 90.4416 71.1723 91.6122C72.7689 93.1964 73.3726 95.0197 72.9822 97.0821C72.8205 97.9372 72.4277 98.7174 71.8047 99.4227C71.1812 100.128 70.032 100.916 68.356 101.787C67.1874 102.399 66.4236 102.924 66.065 103.362C65.7064 103.799 65.4524 104.41 65.3041 105.195ZM59.0848 105.597L65.2268 106.76L64.2015 112.177L58.0596 111.015L59.0848 105.597Z" stroke="#121D30" stroke-width="0.75" stroke-miterlimit="10"/>
<path d="M158.912 99.481C168.267 93.9551 177.621 88.4297 186.976 82.9042C173.581 75.6091 180.393 56.3787 166.998 49.084C157.644 54.6094 148.289 60.1354 138.935 65.6608C152.329 72.9555 145.517 92.1859 158.912 99.481Z" fill="white"/>
<path d="M168.404 76.8187L163.32 79.685L163.033 79.1766C162.545 78.3116 162.247 77.5537 162.139 76.9035C162.031 76.2532 162.045 75.596 162.182 74.9309C162.318 74.2662 162.748 72.99 163.47 71.1013C163.86 70.1053 163.917 69.3618 163.641 68.8712C163.365 68.3807 163.005 68.0811 162.561 67.9725C162.118 67.8639 161.602 67.9755 161.013 68.3073C160.38 68.6644 159.974 69.1693 159.796 69.8226C159.618 70.4758 159.764 71.3567 160.237 72.4653L154.683 74.7498C153.786 72.7405 153.613 70.8131 154.165 68.968C154.717 67.1228 156.242 65.496 158.74 64.0878C160.684 62.9917 162.482 62.5125 164.136 62.6499C166.378 62.8319 168.014 63.8368 169.045 65.6656C169.472 66.424 169.675 67.2736 169.653 68.214C169.631 69.155 169.26 70.4986 168.54 72.2445C168.041 73.4662 167.796 74.36 167.803 74.9254C167.811 75.4923 168.011 76.1228 168.404 76.8187ZM163.907 81.1344L169.353 78.0641L172.061 82.8674L166.616 85.9376L163.907 81.1344Z" stroke="#121D30" stroke-width="0.75" stroke-miterlimit="10"/>
<path d="M185.055 152.784C175.7 147.258 166.346 141.732 156.991 136.207C170.386 128.912 163.574 109.681 176.969 102.387C186.323 107.913 195.678 113.438 205.032 118.964C191.637 126.259 198.449 145.489 185.055 152.784Z" fill="white"/>
<path d="M181.817 132.215L176.602 129.596L176.864 129.075C177.31 128.187 177.772 127.517 178.252 127.064C178.731 126.612 179.284 126.257 179.912 125.999C180.54 125.742 181.839 125.385 183.809 124.931C184.853 124.699 185.502 124.332 185.755 123.828C186.008 123.326 186.055 122.859 185.898 122.431C185.741 122.002 185.36 121.637 184.756 121.333C184.106 121.007 183.461 120.952 182.819 121.168C182.178 121.385 181.529 121.998 180.872 123.009L175.877 119.676C177.043 117.81 178.547 116.591 180.386 116.019C182.226 115.448 184.426 115.806 186.988 117.092C188.983 118.094 190.384 119.319 191.192 120.768C192.292 122.729 192.371 124.648 191.429 126.524C191.039 127.302 190.447 127.944 189.654 128.451C188.861 128.958 187.539 129.4 185.688 129.777C184.396 130.045 183.518 130.34 183.052 130.662C182.588 130.984 182.176 131.502 181.817 132.215ZM175.727 130.892L181.314 133.698L178.839 138.625L173.253 135.82L175.727 130.892Z" stroke="#121D30" stroke-width="0.75" stroke-miterlimit="10"/>
<path d="M149.043 209.814H91.2712C90.8655 209.814 90.5361 209.485 90.5361 209.079V208.426H149.778V209.079C149.778 209.484 149.449 209.814 149.043 209.814Z" fill="#DEDEDE"/>
<path d="M132.414 187.412H107.962V195.78C116.026 193.942 124.211 192.418 132.414 191.004V187.412Z" fill="#969696"/>
<path d="M107.962 195.78V204.444H132.414V191.004C124.211 192.418 116.026 193.942 107.962 195.78Z" fill="#DEDEDE"/>
<path d="M149.461 208.822H90.9141C90.5183 208.822 90.4291 208.267 90.805 208.143L107.962 202.496H132.413L149.57 208.143C149.946 208.267 149.857 208.822 149.461 208.822Z" fill="#DEDEDE"/>
<path d="M129.641 202.496H131.835" stroke="#121D30" stroke-width="0.75" stroke-miterlimit="10"/>
<path d="M107.963 202.496H127.385" stroke="#121D30" stroke-width="0.75" stroke-miterlimit="10"/>
<path d="M107.963 195.78L126.368 192.07" stroke="#121D30" stroke-width="0.75" stroke-miterlimit="10"/>
<path d="M132.414 187.412V202.497" stroke="#121D30" stroke-width="0.75" stroke-miterlimit="10"/>
<path d="M107.457 208.822H149.065" stroke="#121D30" stroke-width="0.75" stroke-miterlimit="10"/>
<path d="M107.963 188.422V201.215" stroke="#121D30" stroke-width="0.75" stroke-miterlimit="10"/>
<path d="M168.191 189.292H72.1563C69.8658 189.292 68.0088 187.435 68.0088 185.144V121.716C68.0088 119.425 69.8658 117.568 72.1563 117.568H168.191C170.481 117.568 172.338 119.425 172.338 121.716V185.145C172.338 187.435 170.481 189.292 168.191 189.292Z" fill="#DEDEDE"/>
<path d="M172.338 132.801V185.144C172.338 187.435 170.481 189.292 168.191 189.292H122.247" stroke="#121D30" stroke-width="0.75" stroke-miterlimit="10"/>
<path d="M68.0088 175.775V121.716C68.0088 119.425 69.8658 117.568 72.1563 117.568H168.191" stroke="#121D30" stroke-width="0.75" stroke-miterlimit="10"/>
<path d="M140.661 143.586C137.817 143.586 135.203 144.565 133.133 146.201C133.133 146.161 133.134 146.121 133.134 146.082C133.134 138.924 127.331 133.121 120.174 133.121C113.016 133.121 107.213 138.924 107.213 146.082C107.213 146.122 107.214 146.161 107.215 146.201C105.144 144.565 102.53 143.586 99.6863 143.586C92.9714 143.586 87.5283 149.029 87.5283 155.744C87.5283 162.459 92.9714 167.902 99.6863 167.902C99.844 167.902 100.001 167.896 100.157 167.89C100.313 167.896 100.47 167.902 100.628 167.902H139.903C140.03 167.902 140.156 167.897 140.282 167.893C140.408 167.897 140.534 167.902 140.661 167.902C147.376 167.902 152.819 162.459 152.819 155.744C152.819 149.029 147.376 143.586 140.661 143.586Z" fill="white"/>
<path d="M140.661 143.586C137.817 143.586 135.203 144.565 133.133 146.201C133.133 146.161 133.134 146.121 133.134 146.082C133.134 138.924 127.331 133.121 120.174 133.121C113.016 133.121 107.213 138.924 107.213 146.082C107.213 146.122 107.214 146.161 107.215 146.201C105.144 144.565 102.53 143.586 99.6863 143.586C92.9714 143.586 87.5283 149.029 87.5283 155.744C87.5283 162.459 92.9714 167.902 99.6863 167.902C99.844 167.902 100.001 167.896 100.157 167.89C100.313 167.896 100.47 167.902 100.628 167.902" stroke="#121D30" stroke-width="0.75" stroke-miterlimit="10"/>
<path d="M124.734 174.752C130.911 172.237 133.88 165.191 131.365 159.014C128.85 152.838 121.804 149.869 115.627 152.384C109.451 154.899 106.482 161.945 108.997 168.121C111.512 174.298 118.558 177.267 124.734 174.752Z" fill="#121D30"/>
<path d="M125.321 168.06L120.83 163.57L125.321 159.079C125.502 158.899 125.502 158.603 125.321 158.423C125.14 158.242 124.845 158.242 124.664 158.423L120.174 162.913L115.684 158.423C115.503 158.242 115.208 158.242 115.027 158.423C114.846 158.603 114.846 158.899 115.027 159.079L119.517 163.57L115.027 168.06C114.846 168.241 114.846 168.536 115.027 168.717C115.208 168.898 115.503 168.898 115.684 168.717L120.175 164.227L124.665 168.717C124.845 168.898 125.141 168.898 125.321 168.717C125.502 168.536 125.502 168.241 125.321 168.06Z" fill="white"/>
<path d="M31.6602 193.596V201.697H86.3447V193.596H31.6602Z" fill="#5C5C5C"/>
<path d="M33.6855 194.446V200.848H63.1658V194.446H33.6855Z" fill="white"/>
<path d="M34.4727 194.852V200.441H35.1338V194.852H34.4727Z" fill="#5C5C5C"/>
<path d="M61.252 194.852V200.441H61.9131V194.852H61.252Z" fill="#5C5C5C"/>
<path d="M76.1051 194.723C77.7211 194.723 79.0305 196.033 79.0305 197.648C79.0305 199.264 77.7206 200.573 76.1051 200.573C74.4896 200.573 73.1797 199.264 73.1797 197.648C73.1797 196.032 74.4896 194.723 76.1051 194.723Z" fill="#969696"/>
<path d="M76.1055 195.166C77.4765 195.166 78.588 196.278 78.588 197.648C78.588 199.019 77.4765 200.13 76.1055 200.13C74.7346 200.13 73.623 199.019 73.623 197.648C73.6235 196.278 74.7346 195.166 76.1055 195.166Z" fill="#DEDEDE"/>
<path d="M85.4443 200.992V199.637" stroke="#121D30" stroke-width="0.75" stroke-miterlimit="10"/>
<path d="M84.4316 200.993V200.205" stroke="#121D30" stroke-width="0.75" stroke-miterlimit="10"/>
<path d="M31.6602 201.698V209.799H86.3447V201.698H31.6602Z" fill="#1F8225"/>
<path d="M33.6855 202.548V208.949H63.1658V202.548H33.6855Z" fill="white"/>
<path d="M34.4727 202.954V208.543H35.1338V202.954H34.4727Z" fill="#DEDEDE"/>
<path d="M61.252 202.954V208.543H61.9131V202.954H61.252Z" fill="#DEDEDE"/>
<path d="M76.1051 202.824C77.7211 202.824 79.0305 204.134 79.0305 205.75C79.0305 207.366 77.7206 208.675 76.1051 208.675C74.4896 208.675 73.1797 207.365 73.1797 205.75C73.1797 204.134 74.4896 202.824 76.1051 202.824Z" fill="#5C5C5C"/>
<path d="M76.1055 203.268C77.4765 203.268 78.588 204.379 78.588 205.75C78.588 207.121 77.4765 208.233 76.1055 208.233C74.7346 208.233 73.623 207.121 73.623 205.75C73.6235 204.379 74.7346 203.268 76.1055 203.268Z" fill="#DEDEDE"/>
<path d="M84.5439 203.684V204.368" stroke="#121D30" stroke-width="0.75" stroke-miterlimit="10"/>
<path d="M85.5566 205.718V203.914" stroke="#121D30" stroke-width="0.75" stroke-miterlimit="10"/>
<path d="M16.8008 209.812H223.546" stroke="#121D30" stroke-miterlimit="10"/>
<path d="M210.925 90.5711C209.987 90.3589 209.091 89.9283 208.335 89.3267L208.579 89.0206C209.289 89.5861 210.13 89.9903 211.012 90.1897L210.925 90.5711ZM213.799 90.5687L213.711 90.1872C214.593 89.9859 215.433 89.5801 216.141 89.0132L216.386 89.3192C215.631 89.9224 214.737 90.3544 213.799 90.5687ZM206.54 87.0843C206.115 86.2073 205.898 85.2654 205.896 84.2838L206.288 84.2828C206.29 85.2044 206.493 86.0898 206.892 86.9131L206.54 87.0843ZM218.177 87.0724L217.825 86.9022C218.223 86.0784 218.424 85.1925 218.424 84.2705L218.704 84.2521L218.815 84.2615C218.816 85.252 218.601 86.1949 218.177 87.0724ZM206.881 81.6496L206.528 81.4805C206.944 80.6125 207.562 79.8342 208.315 79.2301L208.56 79.5356C207.853 80.1031 207.272 80.8342 206.881 81.6496ZM217.815 81.6164C217.419 80.8039 216.834 80.0763 216.123 79.5128L216.366 79.2063C217.122 79.806 217.745 80.5802 218.167 81.4452L217.815 81.6164ZM210.988 78.3566L210.901 77.9752C211.375 77.8661 211.864 77.8105 212.353 77.8105C212.354 77.8105 212.356 77.8105 212.356 77.8105C212.834 77.8105 213.311 77.8631 213.773 77.9663L213.688 78.3482C213.253 78.251 212.805 78.2019 212.356 78.2019C212.356 78.2019 212.354 78.2019 212.353 78.2019C211.893 78.2024 211.434 78.254 210.988 78.3566Z" fill="#2E363D"/>
<path d="M24.7329 99.7168C24.7319 99.7168 24.7314 99.7168 24.7305 99.7168L24.6169 99.7163L24.6208 99.325L24.731 99.3255C24.7319 99.3255 24.7324 99.3255 24.7334 99.3255C25.5975 99.3255 26.4595 99.2327 27.2963 99.0492L27.3801 99.4316C26.5156 99.6206 25.6252 99.7168 24.7329 99.7168ZM21.8591 99.381C20.9569 99.1658 20.078 98.8468 19.2467 98.4337L19.4213 98.083C20.2258 98.4833 21.0769 98.7918 21.9504 99.0001L21.8591 99.381ZM30.0089 98.5329L29.8412 98.1792C30.6507 97.7958 31.419 97.3182 32.1253 96.7602L32.3679 97.0677C31.6387 97.6435 30.8446 98.1366 30.0089 98.5329ZM16.9145 96.9239C16.1973 96.3356 15.5455 95.6655 14.9776 94.9324L15.2866 94.6928C15.8367 95.4026 16.4676 96.0514 17.1625 96.6213L16.9145 96.9239ZM34.341 95.1125L34.0359 94.8669C34.6004 94.1661 35.085 93.4018 35.4773 92.5953L35.8294 92.7659C35.4242 93.5997 34.9237 94.3893 34.341 95.1125ZM13.5338 92.56C13.1439 91.7178 12.8498 90.8305 12.6598 89.9228L13.0427 89.8425C13.2267 90.7214 13.5114 91.5799 13.8884 92.3954L13.5338 92.56ZM36.7525 90.145L36.3711 90.0577C36.5705 89.1863 36.6712 88.287 36.6712 87.3848H37.0625C37.0625 88.3163 36.9583 89.2453 36.7525 90.145ZM12.7917 87.1646L12.4004 87.1576C12.4173 86.2271 12.5383 85.3001 12.761 84.4038L13.1409 84.4981C12.9257 85.3661 12.8081 86.2633 12.7917 87.1646ZM36.4609 85.1419C36.2932 84.2595 36.0249 83.3955 35.6623 82.5736L36.0204 82.4159C36.3944 83.265 36.6721 84.1578 36.8453 85.069L36.4609 85.1419ZM14.0818 81.9774L13.7326 81.7998C14.1528 80.974 14.6681 80.1938 15.2638 79.481L15.5644 79.7325C14.987 80.4224 14.4886 81.1778 14.0818 81.9774ZM34.3067 80.2513C33.7696 79.5316 33.1506 78.8714 32.4666 78.2891L32.7205 77.991C33.4268 78.5922 34.0662 79.2742 34.6207 80.0177L34.3067 80.2513ZM17.5092 77.874L17.2721 77.5625C18.0111 77.0005 18.8137 76.5224 19.6579 76.141L19.8191 76.4976C19.0022 76.8671 18.2249 77.3304 17.5092 77.874ZM30.2356 76.7858C29.438 76.3706 28.5928 76.0467 27.7238 75.822L27.8215 75.4431C28.7193 75.6747 29.5922 76.0095 30.4161 76.4386L30.2356 76.7858ZM22.3799 75.6752L22.303 75.2913C23.0961 75.1326 23.9121 75.0527 24.7275 75.0527C24.845 75.0527 24.9566 75.0542 25.0707 75.0572L25.0598 75.4485C24.9492 75.4451 24.8321 75.4371 24.727 75.4441C23.9374 75.4441 23.1477 75.5219 22.3799 75.6752Z" fill="#2E363D"/>
<path d="M36.2796 97.9536C38.3335 97.9536 39.9986 96.2886 39.9986 94.2346C39.9986 92.1807 38.3335 90.5156 36.2796 90.5156C34.2256 90.5156 32.5605 92.1807 32.5605 94.2346C32.5605 96.2886 34.2256 97.9536 36.2796 97.9536Z" fill="#2E363D"/>
<path d="M169.761 28.8127C169.761 30.326 168.534 31.5531 167.021 31.5531C165.507 31.5531 164.28 30.326 164.28 28.8127C164.28 27.2994 165.507 26.0723 167.021 26.0723C168.534 26.0723 169.761 27.2994 169.761 28.8127Z" fill="#2E363D"/>
<path d="M209.811 79.5593C209.811 80.6406 208.935 81.517 207.854 81.517C206.772 81.517 205.896 80.6406 205.896 79.5593C205.896 78.478 206.773 77.6016 207.854 77.6016C208.934 77.6016 209.811 78.478 209.811 79.5593Z" fill="#2E363D"/>
<path d="M75.1756 67.15C76.7973 67.15 78.1119 65.8354 78.1119 64.2137C78.1119 62.592 76.7973 61.2773 75.1756 61.2773C73.5539 61.2773 72.2393 62.592 72.2393 64.2137C72.2393 65.8354 73.5539 67.15 75.1756 67.15Z" fill="#2E363D"/>
<path d="M80.4602 73.2187C80.2276 73.2187 79.9944 73.2039 79.7663 73.1736L79.8174 72.7857C80.6878 72.8998 81.5881 72.7778 82.3961 72.4301L82.5508 72.7892C81.8892 73.0744 81.1858 73.2187 80.4602 73.2187ZM77.1777 72.0765C76.4292 71.4823 75.8548 70.6981 75.517 69.8087L75.8831 69.6699C76.1956 70.4932 76.7278 71.2194 77.4212 71.7699L77.1777 72.0765ZM84.7426 71.0309L84.4257 70.8012C84.944 70.0855 85.2585 69.2428 85.3349 68.3634L85.7247 68.3976C85.6424 69.347 85.3026 70.2576 84.7426 71.0309ZM75.5661 67.9334H75.1748C75.1748 66.9771 75.4332 66.0401 75.9213 65.2237L76.2576 65.4246C75.8052 66.1805 75.5661 67.048 75.5661 67.9334ZM84.8666 65.803C84.4822 65.009 83.8885 64.3319 83.151 63.8453L83.3667 63.5185C84.1633 64.0442 84.8037 64.7748 85.2193 65.6324L84.8666 65.803ZM78.1384 63.6246L77.9519 63.2804C78.7852 62.8305 79.7514 62.6118 80.6918 62.6535L80.6745 63.0448C79.8055 63.0071 78.9097 63.208 78.1384 63.6246Z" fill="#2E363D"/>
<path d="M173.028 39.2995C172.08 39.2286 171.175 38.9672 170.337 38.5228L170.52 38.1771C171.31 38.5962 172.163 38.8422 173.057 38.9087L173.028 39.2995ZM175.805 38.9379L175.676 38.5684C176.518 38.2743 177.279 37.8155 177.937 37.2054L178.203 37.4921C177.505 38.1394 176.698 38.6254 175.805 38.9379ZM168.183 36.7327C167.59 35.9882 167.167 35.1465 166.923 34.2309L167.302 34.1307C167.531 34.9937 167.931 35.7868 168.49 36.4887L168.183 36.7327ZM179.826 35.2095L179.467 35.0528C179.824 34.2363 180.005 33.3674 180.005 32.4681H180.396C180.397 33.4214 180.205 34.3435 179.826 35.2095ZM179.967 31.7633C179.87 30.8735 179.596 30.0293 179.15 29.2535L179.489 29.0586C179.962 29.8815 180.254 30.7772 180.356 31.7216L179.967 31.7633ZM167.158 31.4945L166.771 31.4359C166.913 30.4975 167.243 29.6151 167.75 28.8111L168.081 29.0204C167.603 29.7778 167.292 30.6101 167.158 31.4945ZM177.395 27.2804C176.676 26.7453 175.869 26.3723 174.999 26.1724L175.086 25.7909C176.01 26.0032 176.866 26.399 177.628 26.966L177.395 27.2804ZM169.918 27.1222L169.697 26.7988C170.484 26.2641 171.355 25.905 172.287 25.7324L172.358 26.1168C171.48 26.28 170.659 26.6183 169.918 27.1222Z" fill="#2E363D"/>
</svg>
