<svg width="14" height="12" viewBox="0 0 14 12" fill="none" xmlns="http://www.w3.org/2000/svg">
<path d="M5.42861 0.728437C5.99036 -0.242812 7.39153 -0.242812 7.95328 0.728437L13.184 9.77244C13.7458 10.7449 13.044 11.9611 11.9211 11.9611H1.46078C0.337276 11.9611 -0.363891 10.7449 0.197859 9.77244L5.42861 0.728437ZM7.19611 1.16652C7.14467 1.07815 7.07095 1.00481 6.98231 0.953837C6.89366 0.902865 6.7932 0.876039 6.69094 0.876039C6.58869 0.876039 6.48822 0.902865 6.39958 0.953837C6.31093 1.00481 6.23721 1.07815 6.18578 1.16652L0.955609 10.2105C0.904641 10.2993 0.87787 10.3998 0.877972 10.5022C0.878074 10.6045 0.905047 10.7051 0.956192 10.7937C1.00734 10.8824 1.08086 10.956 1.16941 11.0073C1.25796 11.0586 1.35843 11.0858 1.46078 11.0861H11.9211C12.0234 11.0857 12.1237 11.0586 12.2122 11.0073C12.3007 10.956 12.3741 10.8824 12.4253 10.7938C12.4764 10.7053 12.5034 10.6049 12.5036 10.5026C12.5038 10.4004 12.4771 10.2998 12.4263 10.2111L7.19611 1.16652Z" fill="#67707E"/>
</svg>
