<svg width="139" height="139" viewBox="0 0 139 139" fill="none" xmlns="http://www.w3.org/2000/svg">
<path fill-rule="evenodd" clip-rule="evenodd" d="M49.8257 22.0026C52.2696 19.1833 55.2915 16.923 58.6862 15.375C62.0809 13.8271 65.769 13.0277 69.5 13.0313C77.3593 13.0313 84.402 16.5063 89.1743 22.0026C92.8966 21.7368 96.6325 22.2752 100.128 23.5814C103.624 24.8875 106.798 26.9308 109.434 29.5723C112.074 32.2078 114.117 35.3806 115.423 38.8752C116.729 42.3698 117.268 46.1044 117.003 49.8257C119.821 52.2701 122.081 55.2922 123.628 58.6869C125.175 62.0816 125.973 65.7695 125.969 69.5C125.972 73.231 125.173 76.9191 123.625 80.3138C122.077 83.7086 119.817 86.7305 116.997 89.1743C117.262 92.8956 116.723 96.6303 115.417 100.125C114.111 103.619 112.068 106.792 109.428 109.428C106.792 112.068 103.619 114.111 100.125 115.417C96.6303 116.723 92.8956 117.262 89.1743 116.997C86.7305 119.817 83.7086 122.077 80.3138 123.625C76.9191 125.173 73.231 125.972 69.5 125.969C65.769 125.972 62.0809 125.173 58.6862 123.625C55.2915 122.077 52.2696 119.817 49.8257 116.997C46.1039 117.264 42.3682 116.726 38.8726 115.421C35.3769 114.116 32.203 112.074 29.5665 109.434C26.9253 106.797 24.8823 103.624 23.5761 100.128C22.27 96.6323 21.7314 92.8966 21.9968 89.1743C19.1786 86.7299 16.9194 83.7078 15.3724 80.3131C13.8254 76.9184 13.027 73.2306 13.0313 69.5C13.0313 61.6407 16.5063 54.598 22.0026 49.8257C21.7376 46.1044 22.2765 42.3696 23.5826 38.875C24.8888 35.3803 26.9315 32.2076 29.5723 29.5723C32.2076 26.9315 35.3803 24.8888 38.875 23.5826C42.3696 22.2765 46.1044 21.7376 49.8257 22.0026ZM90.4079 58.9939C90.7554 58.5309 91.0069 58.0031 91.1475 57.4415C91.288 56.8799 91.315 56.2958 91.2266 55.7237C91.1383 55.1515 90.9364 54.6028 90.633 54.1098C90.3295 53.6168 89.9306 53.1894 89.4596 52.8527C88.9886 52.5161 88.4551 52.277 87.8904 52.1495C87.3256 52.022 86.7411 52.0087 86.1712 52.1103C85.6013 52.2119 85.0574 52.4265 84.5715 52.7413C84.0857 53.0561 83.6677 53.4649 83.3421 53.9436L64.6003 80.1798L55.1946 70.7742C54.3712 70.0069 53.2821 69.5892 52.1567 69.609C51.0314 69.6289 49.9577 70.0848 49.1619 70.8806C48.366 71.6765 47.9101 72.7502 47.8903 73.8755C47.8704 75.0008 48.2882 76.0899 49.0554 76.9133L62.0867 89.9446C62.5326 90.3902 63.0701 90.7333 63.6619 90.9503C64.2538 91.1672 64.8858 91.2528 65.514 91.201C66.1422 91.1492 66.7516 90.9613 67.2999 90.6503C67.8482 90.3393 68.3223 89.9128 68.6892 89.4002L90.4079 58.9939Z" fill="#13C846"/>
</svg>
