<svg width="80" height="80" viewBox="0 0 80 80" fill="none" xmlns="http://www.w3.org/2000/svg">
<rect width="80" height="80" rx="40" fill="#1F8225"/>
<g clip-path="url(#clip0_57_3234)">
<path d="M40 58.5C29.7822 58.5 21.5 50.2178 21.5 40C21.5 29.7822 29.7822 21.5 40 21.5C50.2178 21.5 58.5 29.7822 58.5 40C58.5 44.9065 56.5509 49.6121 53.0815 53.0815C49.6121 56.5509 44.9065 58.5 40 58.5ZM40 23.8125C31.0599 23.8125 23.8125 31.0599 23.8125 40C23.8125 48.9401 31.0599 56.1875 40 56.1875C48.9401 56.1875 56.1875 48.9401 56.1875 40C56.1875 35.7068 54.482 31.5895 51.4463 28.5537C48.4105 25.518 44.2932 23.8125 40 23.8125Z" fill="#F7F5F9"/>
<path d="M48.0938 38.8438H41.1562V31.9062H38.8438V38.8438H31.9062V41.1562H38.8438V48.0938H41.1562V41.1562H48.0938V38.8438Z" fill="#F7F5F9"/>
</g>
<defs>
<clipPath id="clip0_57_3234">
<rect width="37" height="37" fill="white" transform="translate(21.5 21.5)"/>
</clipPath>
</defs>
</svg>
