<svg width="80" height="80" viewBox="0 0 80 80" fill="none" xmlns="http://www.w3.org/2000/svg">
<rect width="80" height="80" rx="40" fill="#1F8225"/>
<path fill-rule="evenodd" clip-rule="evenodd" d="M32.6468 54.044C32.4078 53.5966 32.118 53.1782 31.7832 52.7972C31.3185 52.3171 30.8006 51.8914 30.2395 51.5285C30.8639 50.8828 31.3428 50.1108 31.6439 49.2645C31.945 48.4182 32.0612 47.5172 31.9849 46.6222C31.9747 45.0906 31.3579 43.6254 30.2695 42.5477C29.1812 41.47 27.7101 40.8676 26.1784 40.8725C24.5404 40.8327 22.9522 41.438 21.7563 42.5581C20.5604 43.6782 19.8525 45.2234 19.7852 46.8605C19.7567 47.8922 20.028 48.91 20.5662 49.7906C21.1045 50.6712 21.8866 51.3768 22.8177 51.8218C22.0452 52.2313 21.3161 52.7092 20.6304 53.2556C19.9763 53.8199 19.4069 54.4757 18.94 55.2027C18.521 55.8376 18.2337 56.5501 18.0951 57.2981C17.9565 58.0461 17.9695 58.8142 18.1333 59.5571C18.1331 59.6373 18.1494 59.7167 18.1812 59.7904C18.2129 59.8641 18.2595 59.9305 18.3179 59.9855C18.3763 60.0405 18.4454 60.0829 18.5209 60.1101C18.5963 60.1374 18.6766 60.1488 18.7567 60.1438C18.9107 60.121 19.0501 60.0397 19.1457 59.9167C19.2413 59.7938 19.2859 59.6387 19.27 59.4838C19.2627 58.6294 19.5194 57.797 20.0052 57.0948C20.4786 56.3656 21.02 55.683 21.6223 55.056C22.4657 54.1188 23.3357 53.206 24.2313 52.3187C24.7936 52.458 25.3631 52.5375 25.9401 52.557C26.063 52.5351 26.1742 52.4707 26.2544 52.375C26.3345 52.2793 26.3785 52.1584 26.3785 52.0336C26.3785 51.9088 26.3345 51.7879 26.2544 51.6922C26.1742 51.5965 26.063 51.532 25.9401 51.5101C22.6894 51.1801 21.274 49.1212 21.439 46.9357C21.5642 45.7769 22.134 44.7119 23.0286 43.9647C23.9232 43.2175 25.0727 42.8465 26.2352 42.9297C27.2959 42.9099 28.3215 43.31 29.0886 44.0428C29.8557 44.7756 30.3023 45.7817 30.3311 46.8422C30.55 47.9181 30.3378 49.0369 29.7401 49.9579C29.1425 50.8789 28.2072 51.5284 27.1355 51.7668C26.9777 51.7848 26.8334 51.8641 26.7336 51.9876C26.6337 52.1111 26.5865 52.2688 26.6019 52.4269C26.6284 52.5793 26.7106 52.7165 26.8326 52.8118C26.9546 52.907 27.1076 52.9534 27.262 52.9421C27.9037 52.8724 28.527 52.6854 29.1009 52.392C29.5409 52.9103 29.9449 53.4554 30.3128 54.0275C30.5328 54.3575 30.7345 54.7058 30.9178 55.0358C31.103 55.3677 31.323 55.7179 31.5082 56.0662C31.9605 56.9353 32.3394 57.8355 32.6449 58.7669C32.6666 58.8615 32.7108 58.9496 32.7736 59.0236C32.8365 59.0976 32.9162 59.1553 33.0061 59.192C33.0961 59.2287 33.1935 59.2432 33.2901 59.2343C33.3868 59.2254 33.48 59.1934 33.5617 59.1409C33.6606 59.0766 33.737 58.9831 33.7804 58.8733C33.8237 58.7636 33.8319 58.6431 33.8037 58.5285C33.7426 57.4573 33.5581 56.3966 33.2536 55.3677C33.0886 54.9093 32.8863 54.4669 32.6468 54.044ZM61.4739 55.3677C61.3219 54.9116 61.1311 54.4694 60.9037 54.0458C60.666 53.6236 60.3826 53.2289 60.0585 52.8687C59.5937 52.3892 59.0757 51.9642 58.5148 51.6018C59.1556 50.9641 59.6515 50.1958 59.9685 49.3491C60.2856 48.5024 60.4163 47.5973 60.3519 46.6955C60.3417 45.1642 59.7251 43.6994 58.6371 42.6217C57.5492 41.5441 56.0785 40.9415 54.5472 40.9459C52.9147 40.8952 51.3273 41.4859 50.1251 42.5915C48.9229 43.6971 48.2015 45.2295 48.1155 46.8605C48.0708 47.8793 48.3211 48.8893 48.8362 49.7693C49.3514 50.6493 50.1095 51.362 51.0197 51.8218C50.2423 52.2264 49.5132 52.7043 48.8324 53.2556C48.1723 53.8148 47.604 54.4711 47.1419 55.2027C46.7229 55.8376 46.4356 56.5501 46.297 57.2981C46.1585 58.0461 46.1714 58.8142 46.3352 59.5571C46.3708 59.6975 46.457 59.8198 46.5773 59.9004C46.6977 59.9811 46.8436 60.0143 46.9869 59.9938C47.1303 59.9734 47.2611 59.9006 47.354 59.7895C47.4469 59.6784 47.4955 59.5368 47.4903 59.3921C47.4988 58.5383 47.7618 57.7065 48.2457 57.0031C48.7016 56.3064 49.2156 55.6574 49.7876 55.056C50.6309 54.1188 51.5009 53.206 52.3966 52.3187C52.9588 52.458 53.5284 52.5375 54.1053 52.557C54.2282 52.5351 54.3395 52.4707 54.4196 52.375C54.4998 52.2793 54.5437 52.1584 54.5437 52.0336C54.5437 51.9088 54.4998 51.7879 54.4196 51.6922C54.3395 51.5965 54.2282 51.532 54.1053 51.5101C51.0197 51.1801 49.5492 49.1212 49.7142 46.9357C49.8395 45.7769 50.4093 44.7119 51.3039 43.9647C52.1984 43.2175 53.3479 42.8465 54.5105 42.9297C55.5712 42.9099 56.5968 43.31 57.3639 44.0428C58.131 44.7756 58.5776 45.7817 58.6064 46.8422C58.8233 47.9285 58.6011 49.0564 57.9885 49.9793C57.3758 50.9022 56.4226 51.5449 55.3374 51.7668C55.2409 51.7779 55.1486 51.8125 55.0686 51.8675C54.9886 51.9226 54.9233 51.9964 54.8784 52.0825C54.8335 52.1686 54.8105 52.2644 54.8112 52.3615C54.812 52.4587 54.8365 52.5541 54.8827 52.6395C54.9386 52.7424 55.024 52.8261 55.1279 52.88C55.2318 52.9339 55.3495 52.9555 55.4657 52.9421C56.1074 52.8724 56.729 52.6854 57.3028 52.392C57.7429 52.9091 58.1468 53.4542 58.5148 54.0275C58.7348 54.3575 58.9364 54.7058 59.1198 55.0358C59.305 55.3677 59.525 55.7179 59.7101 56.0662C60.1563 56.9365 60.5291 57.8367 60.8285 58.7669C60.8637 58.9188 60.9562 59.0513 61.0867 59.1367C61.2172 59.2221 61.3756 59.2538 61.5289 59.2252C61.6049 59.21 61.6772 59.1798 61.7415 59.1364C61.8058 59.093 61.8608 59.0373 61.9034 58.9725C61.9461 58.9077 61.9754 58.8351 61.9898 58.7589C62.0042 58.6827 62.0033 58.6044 61.9873 58.5285C61.9382 57.4587 61.7659 56.3981 61.4739 55.3677ZM41.704 29.7381C41.4289 30.2881 41.1906 30.84 40.8972 31.5752L40.2885 33.1739L39.8669 34.4225L39.5918 35.3411L38.4148 34.296L36.9462 33.0089L34.6122 30.8583C34.5644 30.8095 34.5074 30.7708 34.4444 30.7443C34.3814 30.7178 34.3138 30.7042 34.2455 30.7042C34.1772 30.7042 34.1096 30.7178 34.0467 30.7443C33.9837 30.7708 33.9266 30.8095 33.8788 30.8583C33.8298 30.9061 33.7908 30.9633 33.7642 31.0264C33.7375 31.0896 33.7238 31.1574 33.7238 31.2259C33.7238 31.2944 33.7375 31.3622 33.7642 31.4254C33.7908 31.4885 33.8298 31.5457 33.8788 31.5935L36.046 33.9825L37.3862 35.3796L38.71 36.7931C38.8933 36.9765 39.0766 37.4532 39.2417 37.6017C39.421 37.7563 39.6468 37.8466 39.8834 37.8584C40.0359 37.8583 40.1864 37.8236 40.3236 37.7569C40.4608 37.6902 40.5811 37.5932 40.6754 37.4733C40.8832 37.2228 41.0482 36.9471 41.1704 36.6465C41.4088 36.1148 41.5738 35.4712 41.7223 35.066L42.1623 33.8175L42.7692 32.3104L44.3129 28.9112C45.0879 27.4017 45.9698 25.9563 46.9586 24.5751C47.9425 23.2261 49.0767 21.9934 50.3395 20.9009C50.461 20.8034 50.5389 20.6616 50.5559 20.5067C50.5729 20.3518 50.5277 20.1965 50.4302 20.0749C50.3327 19.9534 50.1909 19.8755 50.036 19.8585C49.8811 19.8415 49.7258 19.8867 49.6042 19.9842C48.1767 21.0503 46.8817 22.2832 45.7467 23.6566C44.6013 25.0263 43.563 26.482 42.6408 28.011C42.2742 28.6527 41.9808 29.188 41.704 29.7381Z" fill="#ECE9F1"/>
<path fill-rule="evenodd" clip-rule="evenodd" d="M54.3437 29.9946C54.0036 29.1206 53.5532 28.2938 53.0034 27.5341C52.2101 26.4466 51.3575 25.4036 50.4495 24.4099C50.3602 24.3111 50.2361 24.2508 50.1033 24.2415C49.9705 24.2321 49.8392 24.2746 49.737 24.36C49.6348 24.4453 49.5696 24.5669 49.5551 24.6993C49.5406 24.8317 49.578 24.9645 49.6592 25.0699C50.5075 26.066 51.299 27.109 52.0299 28.1941C52.5066 28.889 52.8898 29.6425 53.1684 30.4364C53.654 31.6489 53.77 32.9779 53.5019 34.2562C53.2337 35.5344 52.5933 36.7048 51.6614 37.6198C50.1208 38.9342 48.3254 39.9162 46.3877 40.5043C44.4499 41.0923 42.4116 41.2738 40.4004 41.0374C34.9972 40.7623 31.3432 39.4019 29.1376 37.4915C28.1627 36.7359 27.438 35.7042 27.0577 34.5309C26.6773 33.3576 26.6591 32.0969 27.0053 30.9131C28.384 26.247 34.7424 22.296 43.9829 23.7114C44.0601 23.7246 44.1391 23.7225 44.2155 23.7052C44.2918 23.6879 44.364 23.6558 44.428 23.6106C44.4919 23.5654 44.5463 23.508 44.5881 23.4418C44.6298 23.3756 44.6581 23.3018 44.6714 23.2246C44.6846 23.1474 44.6825 23.0684 44.6652 22.992C44.6479 22.9157 44.6158 22.8435 44.5706 22.7796C44.5254 22.7156 44.468 22.6612 44.4018 22.6195C44.3356 22.5777 44.2618 22.5494 44.1846 22.5361C33.9852 20.699 26.9686 25.2368 25.2947 30.3814C24.158 33.8906 25.2947 37.7298 29.6858 40.3205C32.9509 42.0406 36.5781 42.96 40.2684 43.0028C42.5497 43.1965 44.8463 42.9143 47.0129 42.1742C49.1795 41.4341 51.1688 40.2523 52.8549 38.7034C53.9355 37.5611 54.6535 36.1243 54.9181 34.5743C55.1827 33.0243 54.984 31.4307 54.3437 29.9946Z" fill="#D0C9D6"/>
</svg>
