<svg width="80" height="80" viewBox="0 0 80 80" fill="none" xmlns="http://www.w3.org/2000/svg">
<rect width="80" height="80" rx="40" fill="#1F8225"/>
<path d="M26.436 25.6955C28.3386 23.7479 30.6118 22.2007 33.1217 21.1454C35.6316 20.09 38.3273 19.5477 41.05 19.5505C52.344 19.5505 61.5 28.7055 61.5 39.9995C61.5 51.2935 52.344 60.4495 41.05 60.4495C29.756 60.4495 20.6 51.2935 20.6 39.9995C20.6 36.0535 21.719 32.3685 23.655 29.2435" stroke="#ECE9F1" stroke-width="2" stroke-linecap="round" stroke-linejoin="round"/>
<path d="M47.8691 39.8717C47.8691 40.4535 47.638 41.0114 47.2266 41.4227C46.8152 41.8341 46.2573 42.0652 45.6756 42.0652C45.0938 42.0652 44.5359 41.8341 44.1245 41.4227C43.7132 41.0114 43.4821 40.4535 43.4821 39.8717C43.4821 38.6607 44.4641 37.6787 45.6751 37.6787C46.8861 37.6787 47.8691 38.6607 47.8691 39.8717Z" stroke="#ECE9F1" stroke-width="2" stroke-linecap="round" stroke-linejoin="round"/>
<path d="M41.699 33.0874H52.409C53.1461 33.0858 53.8537 33.3771 54.3761 33.8971C54.8986 34.4171 55.1931 35.1233 55.195 35.8604V43.8704C55.1963 44.6076 54.9048 45.315 54.3846 45.8373C53.8644 46.3596 53.1581 46.6538 52.421 46.6554H41.699C40.9618 46.657 40.2543 46.3658 39.7318 45.8458C39.2094 45.3258 38.9148 44.6196 38.913 43.8824V35.8724C38.9122 35.5074 38.9833 35.1457 39.1223 34.8081C39.2613 34.4705 39.4654 34.1636 39.723 33.9049C39.9806 33.6462 40.2866 33.4408 40.6236 33.3003C40.9605 33.1599 41.3219 33.0872 41.687 33.0864L41.699 33.0874Z" stroke="#ECE9F1" stroke-width="2" stroke-linecap="round" stroke-linejoin="round"/>
<path d="M52.9 46.6095V49.3595C52.9009 49.7246 52.8299 50.0863 52.6911 50.4239C52.5522 50.7615 52.3482 51.0685 52.0907 51.3273C51.8332 51.5861 51.5273 51.7917 51.1903 51.9322C50.8534 52.0728 50.4921 52.1456 50.127 52.1465H31.46C31.0949 52.1473 30.7333 52.0762 30.3957 51.9372C30.0581 51.7982 29.7512 51.5941 29.4925 51.3365C29.2338 51.0789 29.0283 50.7729 28.8879 50.4359C28.7475 50.0989 28.6748 49.7376 28.674 49.3725V30.6395C28.6732 30.2744 28.7443 29.9128 28.8833 29.5752C29.0223 29.2376 29.2264 28.9307 29.484 28.672C29.7416 28.4133 30.0476 28.2079 30.3846 28.0674C30.7216 27.927 31.0829 27.8543 31.448 27.8535H50.113C50.8501 27.8522 51.5576 28.1437 52.0799 28.6639C52.6021 29.1841 52.8964 29.8904 52.898 30.6275V33.1315M18.5 32.6105L23.895 28.6585L24.62 35.3065" stroke="#ECE9F1" stroke-width="2" stroke-linecap="round" stroke-linejoin="round"/>
</svg>
